<mxfile host="app.diagrams.net" agent="Mozilla/5.0 (Windows NT 10.0; Win64; x64) AppleWebKit/537.36 (KHTML, like Gecko) Chrome/132.0.0.0 Safari/537.36" version="26.0.11">
  <diagram name="Страница — 1" id="nmg-WBn_4ZeaYY9yraIn">
    <mxGraphModel dx="2390" dy="1300" grid="1" gridSize="10" guides="1" tooltips="1" connect="1" arrows="1" fold="1" page="1" pageScale="1" pageWidth="827" pageHeight="1169" math="0" shadow="0">
      <root>
        <mxCell id="0" />
        <mxCell id="1" parent="0" />
        <mxCell id="AAz8cYp_clbT1UvRV7YB-1" value="" style="shape=image;verticalLabelPosition=bottom;labelBackgroundColor=default;verticalAlign=top;aspect=fixed;imageAspect=0;image=data:image/jpeg,/9j/4AAQSkZJRgABAQEAYABgAAD//gA7Q1JFQVRPUjogZ2QtanBlZyB2MS4wICh1c2luZyBJSkcgSlBFRyB2NjIpLCBxdWFsaXR5ID0gODUK/9sAQwAFAwQEBAMFBAQEBQUFBgcMCAcHBwcPCwsJDBEPEhIRDxERExYcFxMUGhURERghGBodHR8fHxMXIiQiHiQcHh8e/9sAQwEFBQUHBgcOCAgOHhQRFB4eHh4eHh4eHh4eHh4eHh4eHh4eHh4eHh4eHh4eHh4eHh4eHh4eHh4eHh4eHh4eHh4e/8AAEQgC7gSwAwEiAAIRAQMRAf/EAB8AAAEFAQEBAQEBAAAAAAAAAAABAgMEBQYHCAkKC//EALUQAAIBAwMCBAMFBQQEAAABfQECAwAEEQUSITFBBhNRYQcicRQygZGhCCNCscEVUtHwJDNicoIJChYXGBkaJSYnKCkqNDU2Nzg5OkNERUZHSElKU1RVVldYWVpjZGVmZ2hpanN0dXZ3eHl6g4SFhoeIiYqSk5SVlpeYmZqio6Slpqeoqaqys7S1tre4ubrCw8TFxsfIycrS09TV1tfY2drh4uPk5ebn6Onq8fLz9PX29/j5+v/EAB8BAAMBAQEBAQEBAQEAAAAAAAABAgMEBQYHCAkKC//EALURAAIBAgQEAwQHBQQEAAECdwABAgMRBAUhMQYSQVEHYXETIjKBCBRCkaGxwQkjM1LwFWJy0QoWJDThJfEXGBkaJicoKSo1Njc4OTpDREVGR0hJSlNUVVZXWFlaY2RlZmdoaWpzdHV2d3h5eoKDhIWGh4iJipKTlJWWl5iZmqKjpKWmp6ipqrKztLW2t7i5usLDxMXGx8jJytLT1NXW19jZ2uLj5OXm5+jp6vLz9PX29/j5+v/aAAwDAQACEQMRAD8A+g6KKK/ND6sKKKKACiiigAooooAKKKKACiiigAooooAKKKKACiiigAooooAKKKKACiiigAooooAKKKKACiiigAooooAKKKKACiiigAooooAKKKKACiiigAooooAKKKKACiiigAooooAKKKKACiiigAooooAKKKKACiiigAooooAKKKKACiiigAooooAKKKKACiiigAooooAKKKKACiiigAooooAKKKKACiiigAooooAKKKKACiiigAooooAKKKKACiiigAooooAKKKKACiiigAooooAKKKKACiiigAooooAKKKKACiiigAooooAKKKKACiiigAooooAKKKKACiiigAooooAKKKKACiiigAooooAKKKKACiiigAooooAKKKKACiiigAooooAKKKKACiiigAooooAKKKKACiiigAooooAKKKKACiiigAooooAKKKKACiiigAooooAKKKKACiiigAooooAKKKKACiiigAooooAKKKKACiiigAooooAKKKKACiiigAooooAKKKKACiiigAooooAKKKKACiiigAooooAKKKKACiiigAooooAKKKKACiiigAooooAKKKKACiiigAooooAKKKKACiiigAooooAKKKKACiiigAooooAKKKKACiiigAooooAKKKKACiiigAooooAKKKKACiiigAooooAKKKKACiiigAooooAKKKKACiiigAooooAKKKKACiiigAooooAKKKKACiiigAooooAKKKKACiiigAooooAKKKKACiiigAooooAKKKKACiiigAooooAKKKKACiiigAooopAFFFFABRRRQAUUUUAFFFFABRRRQAUUUUAFFFFABRRRQAUUUUAFFFFABRRRQAUUUUAFFFFABRRRQAUUUUAFFFFABRRRQAUUUUAFFFFABRRRQAUUUUAFFFFABRRRQAUUUUAFFFFABRRRQAUUUUAFFFFMAooooAKKUYxjvSDmgLhRRRQAUUUUAFFFKOtACUUd6KACijHGTn8qKACiiikAUUUd6YBRR+NKST1NACUUoHBNJ296ACiiigAooooAKKKKACilFJ2680AFFAx36UdDz2oAKKDwaORQCCignmlHTPFACc96KUnjHFDHPegBKKU49aTHvigA6UUoGelJQAUUUUAHXijvRQMe+aACgc/Wigc0AFFFFIAooopgFFHfFFABRRRQAUUUUAFFFFABRRR3oAKKKKQBRRSMwVSzEADkmgBaKjjmSRQyElT0OOtSdB9KYBRRTA5LsgU8Y5PQ/wCcUAPooooAKKU9cUlABRR2ooAKKKO9ABRRRSAKKKKYBRRRSAKKKKACiiigAooooAKKKKAEoopOKAFoo7Z6+tBxnjNMAooopAFFFFABRRRQAUUUDk4oAKKKMccUAFFFFABRR3pKAFooHPHFGc8cUBcKKSl5xnFABRRRQAUUUUAFFFH+TQAUUUUAFFFFABRSCl+tABRRxg96Qc0ALRRSkfKCM/SgBtLRn3o4zxxxQFwooyM+tHt1oC4UUhpTwcUAFFJS9qACiigc8YoQBRRRQAUUA89KSgBaKKQE59KAFooHFFAARRQpxzQKAuA6d6Uj3x7Unb3ooAO2DRnn/wCvRRQAA4pRj3pDxRQAufc5pOcUcnk0dORRcAoAyD60dee9J17UAKTRnjFFFFwDJooo6dCDxQAUEYooPGRxQFwpfbnHakA557UUwFx0pOlB5opXAPxoHpRRRcBV4Oc0h5NHSgjHWncAHXBpT97rSZHNGeMDpSuFwI9DR06UfSjjPGQKYAePrRSEjdtyM4zjNL2xSAAeKKSk3Lu2bhuxnGe1FwHgjHIpM0UUXAM0UlIzBevA9fSi4DqXPFRtKilAWA3nC+9PouAZ4oOfwqOYSGNhG21iODjpSxEmNS33sc0XC2g+jFIxCqWPQVHFKrxgq+8HoR3ouBKKXB5Oc4FRLOrMykbQpxk9z/nFHmN5hXy2CjHzdjRcLEmeOlN3r5gQsAxGcUyKVGdow+4ryaRvKaYA4MgGQccge1Fxk3frQMd6MckDFIeKBC/QUU1mCkZOM8CmQptRlYlxuJ+Y/jQFiXODQj98HuMGolYlH80CPnj5s8fWoLeVok2yRSIC+FySxI9SaNh2Lnag+xo7U11DIVI4IwaBDWlAjMgUuO2Oc011DSLKHIcL93P8xT441ijWNBhVHFNMQaQSNjcp+UjsKB3Q6GXcOY3RueCKePao5FfzFIK7RnII6/SlkkVHRGOC5wvvQA/OBzxTI5A6qy5wRn6UknmCRDHgjOGyegodpFdQiKynqScYoAUORKUIY8Z3YwPpTkYOAQcjODQMHB/nUcm4bSjgKuQw9eKBaMlxnkdKKQFQgAwAOlMSVXd0X5iuM/jQBJQRkYIyDxUe6RZeQNrfcx1Hrmmb5ViDOu5x1VT97mnoBI8YMZQEoD3XqPpTd7RQgKhYjAO48/WpF+7nJJJqPEhcHdtHIKjuO1K47jmcElQpJIz04/OliVkQKz7iO+PypsAdQ4fbjPy49KdJu2HYFLds9KA9BzcAknpVeGWV2LFkEf3kK85HvT5ZNgVmGRu2kAZp6qAoUAAAdBQGwsbB1BBB9xSMXDhQpK4+9mmStIkTGNQ7D7q9OKerZUH2ovoBFbNMoZJlPBOGznIp3mNvYbCAACCeBz2pHDOWQfdKkEjsf607yw0IjlxJwN2R1NAeYquzSlFRgFGSxHB+lJHKHLAA/KcE4wM0RHO4bSoBwM96cR827OPxouGw6kqK6UvGEVwrE5U5xyKcm8AbypJ9OlAIepBXIzS54xUTREK4ifazHO7ripB0oBiMcKSBnFOqO5jDhTl1wc5VsGhJo2lMQdS4/h70MCSij2NFAg4x70VF52d+1WO1iGAHP4fpSkl4gASjMOCR0oHYf7UtRxDA+YqXAAYin55x3oELRRUEknkktIQFY/LjJJ9aAWpLn8qjkMqxHaA7nOO3filG4yAkrtAwVx3pCmZQ5JBA4wetA7DtkhCsHOB94ev405ScelFFIQc0Zpiyku+5CFXjJ7+4p6sroHUHDdM8U7A9BR9aT8aZPIIoy4RmI7DrSSPIFXaq4z8x9BQNIlPA60oweMHio0lUttVhnHSkld12lE3HPJzjFFwsyTt1NA61G0saOEZgGPIHUn8KfkHmgVmKeMEHNBPA6UxZELFAwLL1HcU7NFx7BRSgjvj8aTtQIUk9KDkHmkpepxmgAHTJzik70E9BRQAoxkc0h9iaM/Lg80UAByD/AFozQSAOfxpcjPHTtQwDB4OcCjjOM/jRnj9KSgBSCD1/Wl6j6e/Wm/lRRcBfYdaSgUpBzg0AIOlL270cbcfnikYgADgZoAU/WkpQQOozScY96AClGOhpB1o7ZpAKfQGk/GiigAzQMmilz6DFMBKOfekJAGScClBoAKOfelO3qM5oJyMZ4oACecUZpKa7qilnYKo6k0XAcfY8GjkUiujjKkEdeKHbHPX1oAdnjHX8elHNIPpS55JoASl6ckUg680rAg4NAADgf40E59qSjOM/Si4CnoOtAz/9aooGlIImVQ4P8PQj1qSi43oGTjGaM0U1xlegJ7ZpAOpQT0zxUBkkSEEqJJB/Cnf86USO0pTyyqgA5PQ+woCxMcY4zmkzUDuZo2WFyrg4yVyKcPOLLnZjB3Y9e1MLEiSCRdy5xkjOMdKWkUYXAoU5XOCPY0CFoBz3pkrFdoCsdzYOO1IgRSeSOSeTx/nmkOxL+JBpOaZNKkaje23JwMjvTBHIsRAcNJ/eYf0oBImqJ5gJhCM7yN3TgCpEOV7578YpaAWgwSfvfLwScZzjgU7cOBkc9KZOVVMucDPXOMUsMaxrhc9TyevXNAaWJOaSo2ciUAIxBOCeABSrKjStGCdy8nigLD6KQkAZPAqBZ/tELG3YqQ23kUAlcsUZqOCaOZSYznBwfrQokM8hZV8vAC+vvQFh6OrjKsCM44pagEZjkURoojHJ5P6D8aeHkM+zaPLA+9nnPpigLdghkD7gGY7TySuKkqO4JWIsu7PovWmxRvEFVCWQA5yfmJ/zmgdkSsyqMswUeppjy7ETc2CxA4HBp0qhoyCMgjkHmo45FZmiUMpQDGVwKBImoqISMkpEzxhWOIwOtS9s9qAsQssX2kMMebjt12/5/nU1NCANuPLDPNKpyM0Axsisyna5U+tKFAcv/FjBPtSF8SKm0ndnnHAolEhGEKg+4zQA2GfzXYBHAVtuT0NSMwCluSAM8UyUYiYh9p/vYp65CgOwLdM4xmgN9UREvKEKsUHVgV5I/pSyKS218GIjG0jJJpzRgurYyVPHJp9A7kcsbEAxsFYHjIyPyp6kkc9aVs7SAee1RArBtj24DH5QKAWqFkR3ZTu2hWzgHqKGdldFVCwJIJHbigSEzeWEOMZLZ4HtRbrIseJCpIJAx6dqA23HKxbIIHtg5qCVJhcI8Yyo+UruwMetPb90+UhLbm5KgfrU3agNtUNkkSNSXbAHJqMxlmkbexDKBjOADUpUEEEdaWgSY3bhRtJBA4zzUcEAhYuXaRj3Y9KmpHzsOM5x2oC4wyjzGQAkhQw980RSGXnBXbkMD60kTNJEHKeWx7MORTUmdkZ1ikBU7fLIAzQMlaNGIJUHDbh9adUTyOAuxNzE4Iz09adIxVl4YgnsOnvTFqPopAylioIyOo7ilpCGxyblzlc9Dhs4qGWWbzjHGhJ4wzH5ff8AGnyJtjIjYR55yB0pYt5Yh1HykbT6jH/66ZXmEokdVVGKDOSQPTtUlFFFxB2xVeYySuix4C8MWPcegqxRSBOxGWkV1RULKf4i3T+pqT6ikZQwwRkUtADIUEa4Axz60eX+/EoZhxgrng0+igLjFjVd5Q4Zjkk85qK1Xy4SFhKFSePX3/WrFFAXIGhkYt+9IIfIPt6fSpJt4TMQBZegJ4NPooC4iFigLDaSORnOKWiigQUUUUANjQJuwACxycU6iigCMtIZEIHyHOc9R6VIOABRRQMAADkAAnvSknpnP0pKKdxAABwOlMlDsy7SAv8AECOop9NdSeQxU+o/lQMQxqxBbnDAr7U6SOOQDeAdvIzS0UguxCdq5A6dqakoIG4kEjOD1AzT8Z4qJItsxkJ3ZAA4GR+NAKxKCO/eorhIyVZowWyMFRz9adGmzIHTr15pZWCIzkjCgnmncOug6QkL8pGT03HvUamUriQKCR25FNAEwjkDnA+bjgHilZW8xQsrLweOMGhsLdB1vIWD7oypBxyOvuKbNbpKOWZWH3SD0NS5o+tFwvroRiJj5eZCSvUjjd9aY8axzG4eXqABk4AHpU+fSkdQy4468gjtQCY1pYxKse752GQMdaeeetRSmPekR+8c7e2MehqXtQFtCNo0Z1cg7lzjmn5pKKQDZZBHgs2AeMYJJP4UNKqttJG707041H5EfmiUoC46H0oGmh6SBk3H5TjJB6ikicOu5d208jNOpsiBypIyVORkmgWgxBHHNtDEM/zbSetPmVn2hW2gNk8ZyPSl2jcSefT2paAuNZU5LAEtwTTz7imSJuGDkYOeDiiNmLMChUDofWge4MYkIYhQScAn3pV5yQxOTzmmgMZTlQVGCDTiCcYYigTYkcaxl3AG5jlj0zSQ5wWLBiTwR6U0CR42EiqC2QMdhSwwpFkopBwB19KCiXPUUoII75qvG5jUiWTdg43EY/Co5vkma4kkKxomOM/5NArFumhmwcjJB7Go/NPkCQIWB6AdeaRUVAzInL9dp6nFAWJg4IyCODg+1KG3AEEEGq8cZeAq0fk5zlQev1pGgJgRAwDIQQQvHHtQDSLOaM1GkgbO07sd15FOR1cZRgw6ZHSgTEx+/BLnGPujv70/NMkjSQqXXJU5HsaXcu/ZuG7GcZ5xQA4Eg5FAyaSmugdgSSMds4oDQfk03eN208HsD3psZdlO7AOSODmmwodoMuGkHBbHWgfqShlJIBBx1A7VHIqzxvGWyP8AZbmnIioGwOScn1NNYOpzEikkgnJxQCeo0yxRM0e/lVyQTkgUFUnaKUZO35hk9MipNuWJOCO3rTqAuLTVkRs7WU/SlqNowIikfyemAOKBIlJqN51WQRknJXd+FRTSyRxsRGzgLkEHkn0xUoRWXlAMj9KB7DBOWk2qh24zvPT6VIkiMxQMpYdRnkfWmvDG0YjK/IP4e1EisM+UVVj6jqaA0Y6ZWbaQ7Jg5OO/tTlJ2jPWmGNXTawBVvvD1p4GBigLjZUjmTa4V1z09xTQQkoRY2CkdRjH+f8KbiOFgEQjcSSVXj8alIwd3OcdPWgL6DWRzLu8xtmPuj1pYnL5G1hg45GM02KQS/OhymPTvSyZVWZF3N/dz1oC/ckzSMA4KsAR3BqMI27cGwOfl7E02OEo7NuBDdcjqf/1UBoKX2lBGm9T3UjAqSVd6FckZ9Dg0whIo152hcAdqX95vyNu3b096A3E3sjJGEdh0LE9PfnrUuaZv+YRgjdjOM0iOxJ3KV+YgcdfegGOldljZlXcwHA9aWNi0YYjBI5GajcyFl2DA3fNn09qDIqoDkkZwMc5NAdCXNIzY49eKAQRkEEetNWRWdkwQV9RjNAhIy6Qlpj8wBzjoaZDM8kZkKMo6gHuKdM5TaQrMucEAdPengYAAAGB2oHfS40SgQ+ZKAmPvAnpQ8hVVIQtuxjHb3J9KYTC0phcqxPOCP51KAMcUANebDqiIzFu46D607zF3+WWG/GcZ5xSjA6dKQr825eD3460CuhJQSMKxUsCMjt70qAqoDEFu59aWigLinnvioVHlBt0rNnJGcU4yAOEIOSCfbGaYzSmGRgg3AkIM9aBodDOJFB2shOeGGDxTpY1lAD8gHOM0BFLByuGxjOe1OAAAAGAOlAX10GMqlgWIYryAf508MpztbdjimRxlWdmkL7mzz29qI41QAJ8q9wO9AOxIScelQxySvCWEZUn7obr+PpTynzht7cAjFOAAGBwO1AXSGlQ8WyVVbI+YdjRKoaPYTtB4yDginUEBhg9DQJMEGFAznHf196RcMn7tgB9KSGNYY9iZ2+5zSNGGmEhJyBgc8Cgd0NRmNw6mRSAoIXPPuakRQowPxNIsaiRpMDcw5bHOPSn0BfsVsFrwgk4VR8uOue+fwqVTIshDlQh+5jqfrTlG1QMk+560tAXFzUVwsZZHcgMp+Q5xyakprIGPzDI7D0oBOw8E4oycUlNlBaMhcbscZ9aBIbGZWLBxtAb5SO4qXNRw7/KXzcb8c4PFPoC4ydlWPcylsHIAGTTZfKZFhc8PwB696lIyR1496TaPT3oGmKmQgBOeKiaJguIWEeWyTipqSgSY1F2j5mLH1NPzSUUBcXNRSMqSB3k2qOxPBqSggHqM0AmLmjNJRQAuaPrSUUALx2FGaSigBc0ZpKKAFzRmkooAXNGaSigBc0ZpKKAFzRSUUAIqKpJVQCep9admkooAXNGaSigBc0ZpKKAFzRmkooAXNGaSigBc0ZpKKAFzRmkooAXNGaSigBc0ZpKKAFzRmkooAXNGaSigBc0ZpKKAFzRmkooAXNGaSigBc0ZpKKAFzRmkooAXNIcEEEZB4NFFAAuAoAGAO1LmkooAXNGaSigBc0ZpKKAECgHJ55zTs0lFAhM0ZoopXKDNGaKKLgGaM0UUXAM0ZooouAZozRRRcAzRmiii4BmkYEjAPB60tFFwGRxqiBPvBemacwyMf0paKLgA46DFA4zgAZ60UUXAMmgmiii4EcEKRIUQYBOT7mm84eOB1Xbxj0qamqqqSVAGTk+9Fx3FBbJyR7cVG3l+eP8AnoFzkDnFS1HMCsJMa7nHKg96LghDOQ0ihCdgz7Gly7mNlJUdWBHXjpTkJKgsME8kelOouFxkse9SC20HGMdc0k8qww72BwMDipKKLiRE7ShPkCsxwDngCpFYNnnp14xS0UXC4ZpvmDzDGD8wGTTqKLgiIzHA+RgS2AO/1x6VKM465psgYqdhAbHGaVc7RuxnHOKLjEZSzg5IA9O9OzRRRcQZpsqiRCpJGe46inUUXARRgAZJwMZNNzIHwRlfWn0UXAZEH+87Zbnp6U5idpxye1LRRcCOGVHZ0TIKHDAjFLKrOmFcq3Y4zT8Cii4BmjNFFFxWEdVdcMoIznBpc0UUXGJtXfv2jcRjPtTdzmTaFIUDOfen0UXAbHvAw5Bb1HSlRVRdqqAvoKWii4EYV03YbIPIGAAKSHzc/vNpGOo9e9S0UXGGaMmiii4hMenBpiRbZTKXYkjGM8D8KkoouAZozRRRcAzRmiii4BRk0UUXAM0ZooouIM0ZooouMM0ZooouIM0ZooouMM0ZooouAZozRRRcAzRmiii4BmjNFFFwDNGaKKLgGaM0UUXAM0ZooouAZozRRRcAzRmiii4BmjNFFFwDNGaKKLgGaM0UUXAM0ZooouAZozRRRcAzRmiii4BmjNFFFwDNGaKKLgGaM0UUXAM0ZooouAZozRRRcAzRmiii4BmjNFFFwDNGaKKLgGaM0UUXAM0ZooouAZozRRRcAzRmiii4BmjNFFFwDNGaKKLgGaM0UUXAM0ZooouAZozRRRcAzRmiii4BmjNFFFwDNGaKKLgGaM0UUXAM0ZooouAZozRRRcAzRmiii4CZozSUUALmjNJRQAuaM0lFAC5ozSUUALmjNJRQAuaM0lFAC5ozSUUALmjNJRQAuaM0lFAC5ozSUUALmjNJRQAuaM0lFAC5ozSUUALmjNJRQAuaM0lFAC5ozSUUALmjNJRQAuaM0lFAC5ozSUUALmjNJRQAuaM0lFAC5ozSUUALmjNJRQAuaM0lFAC5ozSUUALmjNJRQAuaM0lFAC5ozSUUALmjNJRQAuaM0lFAC5ozSUUALmjNJRQAuaM0lFAC5ozSUUALmjNJRQAuaM0lFAC5ozSUUALmjNJRQAuaM0lFAC5ozSUUALmjNJRQAuaM0lFAC5ozSUUALmjNJRQAuaM0lFAC5ozSUUALmjNJRQAuaM0lFAC5ozSUUALmjNJRQAuaM0lFAC5ozSUUALmjNJRQAuaM0lFAC5ozSUUALmjNJRQAuaM0lFAC5ozSUUALmjNJRQAuaM0lFAC5ozSUUALmjNJRQAuaM0lFAC5ozSUUALmjNJRQAuaM0lFAC5ozSUUALmjNJRQAuaM0lFAC5ozSUUALmjNJRQAuaM0lFAC5ozSUUALmjNJRQAuaM0lFACZozRSqATycCgBM0ZoooAM0ZooxQAZozRRQAZozRRQAZozRRQAZozRRQAZozRRQAZozRRQAZozRRQAZozRRQAZozRRQAZozRRQAZozRRQAZozRRQAZozRRQAZozRRQAZozRRQAZozRRQAZozRRQAZozRRQAZozRRQAZozRRQAZozRRQAZozRRQAZozRRQAZozRRQAZozRRQAZozRRQAZozRRQAZozRRQAZozRRQAZozRRQAZozRRQAZozRRQAZozRRQAZozRRQAZozRRQAZozRRQAZozRRQAZozRRQAZozRRQAZozRRQAZozRRQAZozRRQAZozRRQAZozRRQAZozRRQAZozRRQAZozRRQAZozRRQAZozRRSAM0ZoooAM0ZoopgGaM0UUAGaM0UUAGaM0UUAGaM0UUAGaM0UUAGaM0UUAGaM0UUAGaM0UUAGaM0UUAGaM0UUAGaM0UUAGaM0UUAGaM0UUAGaM0UUAGaM0UUAGaM0UUAGaM0UUAGaM0UUAGaM0UUAGaM0UUAGaM0UUAHJ6DNKoGcZGe1IpYZ2jp3pD1OKSBsU5zyc0lKDweKDt2Ajr396B3EpwdgMZ4zmmgE9BQAScdM+tAroVsA8GkpWGDyc44ptA0LRStgYxj8qQEelGgXHHG0HPPem0Mck4HHpQwKnBHNALQVQWOByaCMHBptOUjnjP1o0C4lFFAGe1FguFFKVwAT36UYxnJGRRYLiUUu4FQNo4HWk/WjQLhS0h49Qe9OJO3aR06UWQXG0UlFGgXQtFJRRoO6FopKKNAuhaKACeg96MHOMUWC6CikpQMgnHAoC6Cikoo0C6FopKUfSjQLoKKPwpKNAuhaKSijQLoWikoo0C6FopUODyvUd+lIBk8daBXCig9cYxSUaBdC0UlFGg7oWikoH0o0C6FooxS7Rwcjn0o0FdCUUrgBuOlNo0C6FopKKNB3QtFAGegpDQF0LRSUUaBdC0UlLg+lGgXQUUlFGgXQtFJRRoF0LRSUUaBdC0UlKOTgDk0BdBRSnGMYO4ZzTaLCTFopKKNB3QtFBpKNAuhaKSijQVxaKME9Bmk/CjQdxaKSijQV0LRSUUaBdC0UlKBlSxI4oC6CikpRycAUaBcKKVQCD1zjim0WC46kpWA2gjOe9IAT0AoC6CijHtSUaBdC0qgscDrSdqB144paBcKKV8g4PUU2noFxaMikpR6UaBdBRThtDZyCB6008npRoCY7HTkc9KGUj6etNySMnJpVPGDk0aAGOM0EYA9+aQ42j16Uo27TnINGgriUU1mCglsADqTTkI6gZ/rRoO4tJSnbjqc/yptFguhaKDkAZH40n4UguLRRg4BIwD3pWG04OD9KYXCikBHTjmnMEyMEkY5osguNozQMDrS4CsM4I60WC4madjCgnv703vwKKNBXFO3qD+FLwV7k00AkgAdaDkHBoAcRhQeOe2eaApKk9hTVbGcgHPrSg9c8n1NGgB3/rSUZ+XbSdaNAHds4o74pCxOM9ulB+tGgXFI98/SkoBx60GjQAoo7ZxQASelGg7oKKQ/Sj8KNAuhaKSlAyQOmaQXQZopSSoK8etIflYYI9adguLRQSd27oTSGjQLhS038KcB3PFAXQlFOyuT8vb1pMfLnHFFguJRRg43Y4o/CiwXQUUn4UUguLRSqV2kFcnsaQj0p2C4ZPQccU0HJPXrUcbOyHzFUHJ4BzSRGOMiIP83YE5NIdib8aQs7SgBUCY655zS01xlCPancRIGBUDsKaeveo12xxAljgDOWPNAYSxExuORwRQ3cLdiePJbPHA703AOTkYFVmEvnov3o9uSTjk08qwl8zcTgcLnj60XG4k2cjG0E9vWkPXvUckjKyfuydzYPt71K2MAg8nrSFYFGe+BSvuz8wP1pnFOBBbnmmAEEAH1pKX1yD7UlIBxyTyP8A69Gfnz0prPtXeTwo/Kolm3xecASCMgAcn8KYWJjwByDn0NAI6Nkio4mLICwwx6j0p9FwsKGxnB/ClydmMcE03iii4WHclS2c496QknrTQQSeRxSgEnApMErBRSjBGO/rmlIwuQeD19qLBcRSufmzj2oYjtmgjAGMHNKmfL+8AM07XAbQM4zg0uSg3cAepFKTHtGAc4/WiwDsBGGemOQKbu5OMjNNoouCQ7hmyvAxzmhiAdobIpnFKFJ5A49aAsA+tKcZ4PFBY7QvGBSc9cUAA5OAOaXJ29OKFyDuHGO9IW7ds5xQArEY6EHvQilumAPU0FgVxjnufWgt1wABRoFhDxSgDHzA4PSjaCQAwwfWgE4AGc9qEhMTOD64p2QckAD+lIysDyKbnmjYejHbs4zQMZ5496QUEEdaQWFYYUNkc+lIMk4A5opxG1FYHBPpTAODjCnpTaQHn1pygswUdTQFhKXKhcHOTSHKnsaCQScDAo2DQXce+DxijcQPwpKKLsLIU560D5WBZfwNIWwvcgdqU8sCTnPvQAuY+eDntzTTjNKzAjAAC9h6UbyAOenamCQq8DO4DPFI3ykjFNDA4xS4JPAzUgLtH8OT74pO+KQHnHfHSnMCABj6H1p7gJTmLEANngcUigE88CkJzQArEY4FJmmyK+z5NoY9M0u1l+8cYHTrmgNBaPwqPL+dxjyyPxzUoGQTnkdqQ7WEPBxzSgjoRxSgb/4st6UgAwdwJ9MU7CuhWGFxjB60g4yd3PtSbjnJPT1oJyc5ouCFLDB46/pSYo6UpPOQo4o3ASlU4PBxxShwASVzzmm7t3PHtijRC3HEbSQRn6Gmk5ozjOO9ABzgkfnRuMKVWAIB5HpmmNIEYRkcPnt3FIq7GVlJyoxzyT9aAsTK+Oec9sdKjjlUltyNnOBnv70wR/vTITzjAHam3DGIKcqMnkHOTTux2Tdif5ce9KzDaFwPqBUMvmK4HG3+L/CjzUzgnBxk57D1paoViVFDZ5xS8YOQAQO9RvuWRCj8DOcDr6Uku4qSH2HPWjYLXYsszIybY9yngnP3felDhhwQR7VGzNldqg84bnpQhMeTIcjPAAoHZEwUlSeOKUkbcEe9Rhi7KVG1Tyd3UelK74TbjvwaLWJsMEyvtMauecHA6fWpAR6cimQ5IBddp7gUqxIJSVXBYYLGgbSHFwxPI60pICgg89x6VGFczMrbCvBGDnpQhcRMCVYk5GO3tRYLEhP909sUnXnvUcKmOPBdmPUk9akiYTRgowYckc0bjeg5s4B6jtSEbcEHP1qN5ApUFlG44oeT92WVSwUHgd6BWdhzttjLkMcdgKH3qVO35TzmmrJuCozAN12+lPB6Z6UaBawuVwOaG25+UH/GoJLmJZfLIYMTjGKk80BtgBLHnp0oCzQ4daYsciqzA7mJyM//AFqejDk8njilViCCD0oWgMaH3EjgEdRS0woDkjgnrjqaVEWNAqjAHvSHoOpgc+bswQAM7sUSOylQqFs9x2pVYEkcZHUZoCwNuJK7d+7t7VIp8sbRgYPGKbn3qNy2RswfmGfpTuLckyc7u/WnBjlh1z1qF1doyqvtY98dBTZTKkiCPO3B3EY/ChDsTgrnBz1pRtJOM+1V3Ls+xcr33dvpSxyOzshXhP4scHNAnHQmLYwpPXkCkkdY1G8rjOck9c9qhSNlBOQWOcsRzTwCUAY5PfjFO4WQ9vl68Y9aYZVEm0g9Cc0x1d1dGfGRgFeCKdIQkZbOQOSaQ7IeJI/4Tk5wQO1OZw7E5zjjiokKbd6Yw/QjvTYguN+wru5IzigViwSBGCD1GTSbgQBjoO1Rq6FQVZSM4GDTTu8wD5Sg5PsaLgkTKPfHH51HG+92+Vhg9x1p/FRur5HluF5BPGaBkpIC8sM5xik+lNmAbcFYqD3HWm7pN6qFyO7E0mJakvy7TnOfamLKpmKK6kgcg9RSO4TGQTk44olLkEgBjjpnFMLASTLt/hHIIPX2qTIIxgcVBF55KlwoU53DPI9KmoG0K+B0O4YpE+ZNw49jUcqhl5JHuDjFPVlwQP4Rg+tAmO+7256YNOD4jKgEZPPNNfO47uD3zUXmAnCfNzg89KLtAlclycYwMUFieufSofOUo7jkLnP4daSORlj8yUgKTuzngf40DsWMbnAHJ/KkYnOCenFRtKI8EuVyeKf1ouKwpI7CgEnLYHvTeKZNIFhLGRow2PmHvSuFh5YA8g/gOlOUA5ycVCwYELkbTwSTzn2pXizbiHJEY9OuPrTQ2kTKu4kjj8aXcy5H4fSoFMglP3Qgxt55NEcgkycMDn+IYouKxKCc8UM5I2k8DoKSon2mZePmA4P9KQWuybORzwPShm5ODwaQEbDxk9qgErMnmRqW7BD/AJ4p3CxYBORnNKq5OegHrVeWZ1KFAyEuF45pwBNwjbm2AHcvrQkgcSXIzgcDNKWDZ4AJphZeeRilB75ouFiDdHB8oyu5vQ4zTpCQ6lY1bnkk9KdRSHca0qKMsccgfQmhcq8jFiQTnntSRxqq4x3z1p9AbEchSQiFlYgjPfFGDGiLGEwDznsKk75pCARggEUBcd1wT1FMljDqR93PUjrTqKAEO0Hk9OntTRPGQpGTvPy4FKqYdmLE7ux6UoUZyABQGgkK7E25JAzgk5p9RsXJXaAVPXntSFX8tg0mM9xxgUASb03FdwyoyR6UAg8jketRoFYtlSCPlJPcU2EtuIQKsY4AxzmgbRNI6xpl/u55oUg9FwO1Q+aHZQF3K3y528A+9TZoE0DsiguxA9SaAwNRud0hQoGXGcnsc0rICUJ5ZfU8UASUkhGwg8AjrTZZEiALsFBOBS8MuCMg9j3oAWPAQYOfc96evKnnBHPXrUGHRgI9gjA+7j+tODqSRkZHv2oBokoD9V6+ophIzjPJ7U2MMM723ZPB244oAm3LtOQd1JUJDeaGDfLjBUdPrToy5XDgbs9ulAWFlyQAHK8/5FOyMDFNZQwIYAg9c0KAqhV4AGBQF9BJt5UeW20g5+vtTx0qPZ+8DliflwRTnbCk4JI7CgB1KCQMZ49Ki3OYQUGSezcU8EmgBrvtyzSBVGODj+dS7iQOeBUbDIxx+IzSEvuXaAV5zz0oC1yViM8DjtTaQZAxnJ7mjmgQtLUchdUJUAt2BOM0wSMylRhZAuSD2oHYnzTXdUG5jgUDPfFIcHr+tAbD0dSQWJ6fjQetQTBxIjogYg8knG0U9nZSo2FsnHHQUBYkBxzTDLIUYxAFunJ/z70oORzwfQ01EWNcIMDrQA9WI6rwB7c0pORUUkiohdjwO9RTtLIQkYx6sfp2oGlcsb1B68miGXequFK+oPrUbxj74GXC4+o64oSXEAeQOPXI5FAiYMcde+aVmyoGBx39ajU/uwc54HOajidg3lu25uSMDt70BYkDqSRkbh1GelCOrglCCAcU0bN5AIDdSB1+tCOgcxKMFRkgCgB0q70Iyw/3TimGeNXWPdliOlPDDcFJ5PakEaCRpAPmYAE/SgLrqEblh86lSegx2pt1F50WwsV5zkVJnkcdaY6sxBJK7WyMd/rQC3uDo0iAbmUj04zTZJJFhQKCrsSvAzgdialooTC41YwMk5LNgNzjNSK4Kliy7ccZPeo5NxQhSFPY4zSbAVXeFLDvjNAMlLgDBxgVC9zEF3A7jwQF5PNRrFI7ZkbA3HKj+Ids1I6hcFFGegBPamNJIkMufmfCk+pxTwyshz17HrmonRWAyoODkZFOGdozjPoKQtBqROyjLsSrFuOMj0NN83OAqO2DtJ6D9etSUgHX655p3C4PKiMFJwT0HelZjs4GGx07ZqN0IYOiqW6EnrilIkMiHcAuDuGO/akPQbbSO6nzFKsOCO2fan+am8pn5gMnikkRiuEfafXFIDvcqV4xkMf4qA31Fmk2BWGWJOAM8GnGYoVVQzbjg47CkCKMYUYXoPSkfcCCq5555xxQF0JnzldVLLyVzilYNGGdcuccL0pVcM5UA8d8cU6gVyOJmiChg0jE5olcyAN5Rz5nTPoetPIBGD0pfrRcL63HByw5/KkpioFkZgOvvTqAEd9pAwTninud+C4BIqN9xI2kYzyD6U40ADAsyncQF7DvSsAVwfxPekooAC3PTk0xcyKBIhAPbPFKUXzPMxzjH4U6gLi8elKGAOeCabRQIY52OAiE7zyeuMCl3sJMEALj7xPenUUDFprKMhucjpg0tFAhELMDvULg8YPWiKOOIEIoUE5NLRQMFkDFlGOOKjSVfNMe3B/mPWlIcSDG3YeueopwVQcgAH2FAC8EYqO3hEPCuxGOATwKVUCsSoA3ck96fQFxsu3emVyc8HHSnnik75ooAaG3SFSpGOQ3rQGkMhB27B09aUAAADgDpRgZJ7nrQFxqBUd9oJJ5JzmnRuHUHBUnnB60gRQzMBy3U06gLikgdTUcrkxuI3AYDP0p5560gUAkgYJ60ArCIGydz55yO3anBQGLADnrxTY0WNQi5wOmTTqAFpoQiRm3Eg4+X0paKAE+Yy842joe+acKjdNxB3MpBzwafQApAIwQDTY1CgnaATycd6WigBaWm0UCB1VxhhkemaERUQIowo7UUUDFAAGAMD0FLmm0UCGFCHGwhUzll29aS4SWQDypAhzyfansoZcMM0kahECLnA4GTQVcRmZNoVWfPBOcYpzqxdW34UdVx1oIyCKWgVxoLCQhiNp6cfnRM5QblUt6gU6o5mdAGRC/PIHX60AOxJ5gIYbT1H+FPpMY4ooFcGbAJ3Bcdz2oRg6hgQR6igjIweRUEomUKsCJx6nAoGkWPaoXiiRjIF2knJK5zTkVl5Jzn9PpT6A2Gh5JCrh9yEd+5pgEUDs5YLu6kng1LSMqsMMAR7igdxcAjGBilOCirtGFGBxSUUEiHZkZ5I5we1NaWMSKm45z2HFJGjK7sz7gxyBjoKXywoPl4BJyfc0FadQcKzhtxG3sO/saC29thQlSuQe1MEbNLvkCYU5Tb1H1qagNhR0x1+tJulEpAx5ZXB9c0UUCEVNrEhidxyc/0prArJ5m8hRkkY4p9FAXIo7hXBYqVQdGPANPkcqoKR78n1x+NKVBGCARQM45OaAuughkGQhI3kcD1oSQs7IY2Xb3PQ0uM45xS0BdCtyPfsaiVHWIjdvkx16ZqSigPIjijXyFR8Njrznmljd1X96qg57HPen1FNEJWG7dhcEYPBNA79yWiiilcAoooouAUUUUXAKKKKLgFFFFFwGQp5cYQsWx3NP/AAooouKwHkYPSiiii4WEAxnkn60tFFFwsRxF9zK4wAcKc9RTnUMpzwccH0p1FFxjNihQOoHSliJKAldp9KdRRcBko3rsywB7qcEUrLwccEjrTqKLgRQxgRqGUAgc96HhRnVucqScA4qWii4DFTYgVenPPcCm4ZUCh/mHUkdalpror43AHByPrRcBRgDrTGc/LtUkE9fQU8qGUqehGDSIoRQqjAAxRcBrOxdVVGwc5b0oIbzAQTsx07k1JRRcCJfN3HIXbt49c05dsa7dxP1PNPpuwbmY5O7qO1FwFVgygg5BqPYwWTbIfmOQSM7akAA6ClouBFvWMqryAsfXvQNzyF94MWOAP55qQgkjBxUaMquI1jIBGcheKYBucMy4A/uknOTSoQqeZIApx8xp+ATnH0oIyMGlcNBglUxmQZ24yD60ihZQjhjgHdx9KeyKyFGGVPUURrtQKFAA4GPSi4aCgY7k/Wm7R5u/DZI9eKfRRcRDtkU/IxOX53dAPalkjMhBDMmAcbT3NS0UXKuNRAsaoTuC460oABJHGaWii4gpD0paKLhYiOZHdJIiFxwSeDUpooouA1EVSSAMnqe5qO4ZwUCR7vmGTnpU1IBgk+tFwE2Lv34GcYyPSlAwAB0FLRRcVhrorYJzkHI5pEZyxDJgdjnrT6KLjCiiii4BUaxhZN4ZumMZ4qSii4BRRRRcVgoooouMKKKKLgFFFFFwCj6cUUUXCwUUUUXCwUUUUXCwUUUUXAKKKKLgFFFFFwCiiii4BRRRRcAoooouAUUUUXAKKKKLgFFFFFwCiiii4BRRRRcAoooouAUUUUXAKKKKLgFFFFFwCiiii4BRRRRcAoooouAUUUUXAKKKKLgFFFFFwCiiii4BRRRRcAoooouAUUUUXAKKKKLisFFFFFxhRRRRcAoooouAUUUUXAKKKKLgFFFFFwCiiii4BRRRRcAoooouAUUUUXAKKKKLgFFFFFwEopKKAFopKKAFopKKAFopKKAFopKKAFopKKAFopKKAFopKKAFopKKAFopKKAFopKKAFopKKAFopKKAFzRmkooAWikooAWikooAWikooAWikooAWikooAWikooAWikooAWikooAWikooAWikooAWikooAWikooAWikooAWikooAWikooAWikooAWikooAWikooAWikooAWikooAWikooAWikooAWikooAWikooAWikooAWikooAWikooAWikooAWikooAWikooAWikooAWikooAWikooAWikooAWikooAWikooAWikooAWikooAWikooAWikooAWikooAWikooAWikooAWikooAWikooAWikooAWikooAWikooAWikooAWikooAWikooAWikooAWikooAWikooAWikooAWikooAWikooAWikooAWikooAWikooAWikooATNGaKKQBmjNFFABmjNFFABmjNFFABmjNABIJA6UHrxQAZozQASQB1NKysp5GKYCZozRRSAM0ZopOfyoAXNGaSloAM0ZoooAM0ZoooAM0ZoooAM0ZoooAM0ZoooAM0ZoooAM0ZoooAM0ZoooAM0ZoooAM0ZoooAM0ZoooAM0ZoooAM0ZoooAM0ZoooAM0ZoooAM0ZoooAM0ZoooAM0ZoooAM0ZoooAM0ZoooAM0ZoooAM0ZoooAM0ZoooAM0ZoooAM0ZoooAM0ZoooAM0ZoooAM0ZoooAM0ZoooAM0ZoooAM0ZpyKDnLAY6e9JtyMqDin0uK4lGaUAbD13A/hQqlgSMcUAJmjNKFPORjB5PpSnaGx1HbtRYLiHjvmkzTshiNzcD2puMnjp60DDNGacEJXII/Om4P8A9egAzRmhhg4BzzShf7xxxkUgEzRmg0KMsBjPtTAM0ZoIIJB60UgCilXHOc57fWgAbsseM80wEzSijI5yPpQpCtk8jpwcUAKVPHI5HalOApBHzZpn6U5ADyTjHSgQIyhskbvakOM8UoYAkn5s9c0m72Gc0dABgVODwaUj5QQc+vtQPnfkgZ7ml25U4GQp6jvQAzNGad8pAGD7mhycBT/CaAuNzRmiikMM+9GacT8uCuCO/wDjTCCDjp9aYC5ozRRSAM0ZoooAM0ZoooAM0ZpVRmUsBwOtJ3wetMAzRmiikAZozRRQAZozRRQAZozRRQAZozRRQAZozRRQAZozRRQAZozRRQAZozRRQAZozRRQAZozRRQAZozRRQAZozRRQAZozRRQAZozRRQAZozRRQAqqpUncAR2x1oC5cDcB70nyjP8QxxThhl52qQM+59qegrjTxxnnNJmhCQwIHI5obl8jvS0AUgbQcj86F5OMgZ65pThGwwD496IjtYMRwfXpTsAKjMxC5b8KAdpIYdOMelNDsAQCcHrQ2MDGc96NAJELFNiZ9SKjJpASOQSD7UoHTPT1HaluNaBmnAjByCTRt2Fdx684I7U1sMxOAKBDsDZuDc56U3NBK/w5xjmhVLEAdTQxoVcEnNLkEHg7vWkj2ggPnaevqKTJB4NAg9u9FLlpZACck4FKByECgnPagLiKNxxnmgKSpIHA600jHBoySMZoGSK24BAoz9OaaQQTkEYpvenJ8w27sfWjcLCZozSUAcEk8CgBc0ZpSo2ghh75pWj2nBOfp0osFxuaM05o2UheCfQUygBcijIpABnk4pxO1+oYZz7GgLiqm/IyBgZpCMcGlQ7t2SFJHU0jSFjyMDuBxmnZWFqJRmhsZyAQD0zSUhi5o+lJj60Dgg8igBx4PWkzQ4w3UHPOQaSgBc0ZpKKAFzRSAZp3yDGQT60AJmjNLvOzaM4zk00jvzQAuaM0mKKAFzRmlRS52qCWoEbl9gHzA4xRZhcTIozSHg470/DKgYdGyKNwY2lcFSMjHFIQdueuT1zSoUyN2ce1CATNGaQ4zxRQAuaM0lKB8pbIPtmgBaSlJBQDbz6j0obBAAGCOCfWgBMijNKEPy8EA01htO3gkdxQAtL26UiZA3gHilLkuWYA/hRYVwIOM9B60D60rD5MgggnpmmgkHI7UxhRmlDjklQSfWm0gJIyeQBkHrSY+Xdwe3403kY4x3pQN6nkDAJwaYthM0ZpUCbSWY7uw9aNuVLKOPrSGJTtvTJxn1pnvTXnBCnJYNwGAyBQGr2JkwpL4VgO2aTggkkDHbFNUoR8xPsRUbSFGVQDluM44phZsmfAOAc49qQcnFNWReIyE3cHk80ZCudpzg9jSsIkJQhQEGeh5601xtbaeD700PG6BkLEkmmSSggbyRlsAHselMaRYICRhsgkn8qYrYBBJwaQsxUKSSB0pjuqlQTyxwKH5CSHvIuRuKrnj6mnMxLZPHtUBL7j8p2gZz1JNOV2dmLKc54J70DtYlZl3E4GB1zSM4bB46dqaaYEw5fJ54x2FIB6upJCkEjgj0qVJFQHC5J9agRAucdSck+tKeATgn6UJ2Bq47JzmnFyU2nn3PaoYmDqWG7k9G7Uu5d4TnJGaAaHM6oAWOATins6kqQvQD8TUbOUQgKGz29aQShofkjzg/iaOgWJgQ7fNx6YFBYgAbcc5qvG5UK0jpuJwOwzUrMWYse9MLaj0dA2XzjvQ0eE3HODUTglTtODjr1qNZW8zySTx7cE4o3Cz6FkEI3TetCtkbS2BnNQIxbOVIwcc9TQ+4sAMbf4s+lILXJMjJAOcUrYAHfP6VEECFmAPPXmljZiuZEUNnqD1oVgsPzSgjvzTaKAHvs3fISR703NRs6gNgE7euKcpBGf8igLWJN2MY4I70m4gEZ4Pam0hIAyT0oAdmlAJBPYdTUW0+Zu3HGOF9KEWU5UEMT1HTC/wBaFqDJ9pzjoevNDEqpHY4qMtzycmlZywALZx0piHLIyghT16+9IGG3GB9agfzJGARiq9cjv7U9WCuq7WIPoOBSQ7EhBAB7HpSZGaUsu0AA8dSab5a72ZQ2G/GiyBeYuaM0pRYSUAyMDBJyaYjCRyicsDjAoAdmpMnytpGMHNMZdpwCGBHWo3mIlReSSDzj0poLXJB+PPehiu44OfeonLKr4b5W6jHGKegjZFMRLAjjAoAcOTgc0h4znjFKCUXcoIYdxTQxkJ3YHcZ9aVhDotskfmK2V9qD0ByPoKTGyEJjpyMVHGHyd2DycY9KNEPcm2gAHIJPpSqEEnznK98VGfehXQsyEkkDI9qNAJSAWIUYx70w8Gmg85xUioZTkBQAOcHFNK4r2GZozSlR0H3gefSm0thi5ozRtypYZwOtO2Aw7xn8+tOwrjcijIoAULnq2elM3rv2Z+bGcUhj80ZpKQkUAP7ZpBz0oXG0/Lk+oNOkGxtoPb0xQIbRmkJzRQMXNGaSigBc0ZpMcE56UUALmjNJjAo2nGcUALmjNJg9O+M0UALkUp4602nbiwO5ug4zQgEzRmkAz3/WnqoRjvGcDpnvQgI2IUZJA+tKCCM1EBuUCRVz1x15oZthbJVR25pFWJgSvK8H1pHeNI2ZuBxg02myMAACuQTg8UISRLuzzxn6UMxIAPamL0oPI7/hQFrjqYhfewbG08rimF2CqSpyTggc4oHmJGcjew9+tA7EuRnHGfSnBjjHaogo3lsc4xTXLqzFI88dd3U0CsTd6KiV8Llyo9eelKrhz8pBA4OPWgLE287No/TrTsLtLBiMc+5+lQ02MuR+8xn26U7i5ST60Aj60xmAIXcAx7GmguJCCqqh6HPWkOxOAFYfMDxk+1IzZYkAL7ColkRnKhgWXr7U6ncLEiuV5HX1xmjCYHr3z2qOilcVh5GGxkH3FJSE+tNDgnCkE4z0otqNJkiqWYAdTTn3RhowwIJ5IqIyhURn2qcAHjjNOJBAx2/WnsJoUsSu3PA9qTpUbsy8gFiT0FNcyb1CYIz82ewpbjUSVZFLlM8r1FSKFJXBOT1AGarlMBiuFY8kgU+KYfeR8470waJXfdnK8k5zSB8ZOxTxUDFiSAmQR3NIXAiHmkAnjrRdgokwNFRgMpVQo2jqc06kFh1PI2jaV98mmbuPu856imSO7yKRyO/PbtTFZkxJUHDD5hyB9aZSLwRk5oZo1V2YkAdKNwsLkYzmlCkoXGMD3qCaYqFUKGLnaM9v8ipwUCBAqooABP8AWiy6g07BgFeDk56Yowc4waSOVUbdjK9if50eYTk54brRZBqKpZfmBwaarK33SDzg4p0xwoZj8vQEVFGQSSFK8nPFGw0iQ04MSVDE46UxtioWkBK96RScCjZXESlt5O4k/h3pjkAqAck/wjvSUmQGHr25oTHyjvNG/PCk9s4p4I2E7ufQD+tQMgLBsDeOATzQzqgLOcAd+1FxNXJ5VVCACDxzTWwTkcDsM1E7vuQKAQTzz2p1JsEiRdoPzAkexpv8XbFMyfM6DAHXNCur5KkHBxxQOxKAhY9dv61Hv+cpgjjOfWlBIIIxkeopPLcxuyPmTqOOAM00rh6kjy5YB2C54x0pRsDYLHHY4/pVa4O4hmXPzdu2e9SFjuCn04NFwsSbwEKkZPY+lODoyc8HHUH71VHXzSjBvlBzilk3Lht4CgfNx1/wouw5UTqRnBPH8qVnQDau04ON2OtVzIu5Bn72SOKciKigAd80XsHKTEbTjgikdsnOAPpTNwcBlIOaY7K3yZPzLnI9KLhYmQBj1AwM8mjAwSD36d6gjyiEPgAdDmpFYEgqc56EUBYcOme1O2DPDDpUUUhPmJs4yAGpFLAnf3PGOwotYLEzHOMk8DFNOO9NpHUMu05x7GkCQ89sA8ilRtpzjNNKhypZ8FOmckUkqqQUB3L69M09tUG5ILgKn+rEhznBAz+dRTqVX5VGG7KegNIjjcUG7IA6in8enNO72BKwzYAqgMfl9+tSdRzTaYHBl2AnOORipCzHSL1K/KT3xzSwGRG3GQE47LRTFQrIW3sQRjb2oTsO2g5o1Yg5I5zxS7B35GPSiigWoSFgh2AE9s0YDYYqOOntUcwYAOoZ2BxjPrSurkDYxB7k+lMdiWmOpK4ViuDn1pQc9sUUhJEe/LAou4dCwPSpdw3bScE9OetNCgD1PrSeWm/fjLdj6UDdh7sFGeTTUcOucEZ9eKb8sjA55UnjPSgg712tt68EdaBWB/N3KFXIzyd3SlyIwituY9M4zTqD0ouMX73NLUcW4rlipz0Ip1ArCkZxz3pHdY1yxwKDnHFMAZshgAM8fSgLDi+HC7Tgg8+lPqONWA+cg8ntTqAsJKdqllUMw6D1prB3VWU7DxkEfpSyMVXKruI6j2pwGKBjqa0aswPOR70Uj7tvy4z70CSHblyRkce9IzqGC9z0prRggleGPemyIGC5YjHQ5waFYLEiheoGM89Kd3qMtlTswT254ppEnl8Y3479KLDsOlZgyhGQZPOe49qRnUAL5gDMOO9JCCygyLhhwc+tPI6EYBHtRewCBwm1GOSeOB3qQ/jTaKBWGJCqqylmcN1zRsDMCWPy8Y7Yp9N8tPN8znOMdaLgORcMxLZB6DHSmvIolCHduxkYFOoouMNy9M0GQhxHhvm5z24qJk3SENISpAO2pQADnvQFhwwO2abMXDL5PUnn198U19xHyEfeH/16UDnJ5P8AKnsKwlzlVQx7mGeVH+elPU5HIwfSkpu397uy/T14oeoySmN0Kq23jPA6UtIyBmViSCvTBpCsSKSoYAn5utITgcE1HLnbhWCntTutAWGhmKHeuD0HOeKdA0vlYkChuuQc/hRQQD1ouMazSHcykNkZX/ClyFkAJ5YccUqqFUKowB2oIzRcADAnHGfTNOPSoYxiRvkI/wBo96VZVZ2TBGO5HWgTRNHjPzZx7UwODnAPBx0qPL+UWCANngA8Gp92+Fkck7venvuFhhcBgvcjI70wSynzQFww4X3p8nEJEYG/jBNMCqhdy3Xk57UbDsibIZQCMMOpz1ppRzKECEn+VID3FKH4Lbhz3ov3FYc5+bGNopJEQymVQRkY254FIkm8CQsGPHTvTkkLSssYOcenr2oQbEeGSQ7n+XsMdKeSW5LZ980yTcRhW280qnHIFICSNQzgMSPpUcjLGqknqcfSkNyF8tl5GcAgcU0OWZwUIA7+tMLNbkzgqVB5z0xTog+d6AnFRoPKZtrZyc564zTZHB/dh9rHnKnBo0TFYkWRZAyoobB5x1BoII6gj6jFRxgKPlGOcnHc+tKXBfaztuI4B5zRuOxMuCpZm4UYA701QWViM/KM/SoxS0XFYeSzck8DikYAHAOeaQOAu0hck8ZoBUA8Z44oCwk2VKAZIcdV/hoPA64okaRowECHHQHj9aR0YMAWQqRzjsaLdhpD02tHvVsnqPQilVsA8A59RmmYURqijGBimKxZiAuAD370XFYAD5pbLdMY7GlZQeoH5UUUihmZTIRtwuOCT3pyAj7wGe59aWigGxfxpu8iTbg4x17fSmLtkO/LZUkcHvTlB3ZP3ccD0oEP75opKKAAsBknt1pFZXQMOhHBpsaBE2ZyPfvTgBnPegYnlIAdqDJOfqaYWdZlVUADD5mqWigEIXGdm4bvTNCKVGCxY+p60hHzAgD3zSOxX+HOT2oAc4Xgld2PbpSRuJFzggdCGGKF3l85+XHT3p1AERnjV9ikbi2CAKeVbeGDfKAeD60jFRIAfvnkcdac2c8AUANeZEKhzgnPTtSgEyhgx27cY7ZpFBdB5gGSOaXad+f4ewFAD6MDOcc1ChfdyFH97BpyMxYjadvY+tArMfw3UdDTWyHB3AKR0xTeIgzEsc8+tOBV0Bx8rDoRQMVQw5ZgfTFOpoAAAHaloAWmOCAApCjPpTqKBBGuxQNxbHc0uB6CkooANwpEkDAHpnPWk2nzN+49MY/rTQGYurrhc4HPUYoGKzM8eYiOeAT0oQOrNuIIJyB6CiONIxhBin0BcRXVgSpyBSIRLECykZ7GklKpGWI4FCooYtzyQeaAJKjYrIrpjdjgj1NPooENIDR7XXjAyO30pGkEa89Oi4HNEqCRCpJAPpTsfj9aBgEG5jknd1HYUm5vNK7SAP4iODSRRrGpVc4JzT6AFhlXcylC2PX19qYoZdxYk+mB2pccgnqKWi4hMkx7tpBI4BpseJFV2Qq2PyoCsGGG4xz9afQMaVbeMHCAfdAoO5nIZRt65z1p1IQD1GaAuKSFXJOAO9MEm6LzACRjIA60SjerISQCOtOVQOmM+tCATAkQbsqfY8ikJVJANuCe+Kd3z3oxznNABIxXbhS2WwfanVGikL8xycnr9afQAEHjGM+9MQE/O8aLIM0+ii4hsKsgKkKBnjaKfSUUDGvGknDjIpSD5m7I246Y70tFAXYAKBwAPpSRyBy2M/KcHNNkfAOF3YIBpwHJNACsFYYYA+xpsWzcwUYI+8KdRx6UCGx7dzYXHPPHX3ocEkFSAe/0p3TgUUDGOHYMC21COo6/WkVyIQ33+OCP4qWVPMUoSQD3FOUBQAABx2oDoKDkds4pm/y4y0hHB7CnUtACggjI6UUlFAhaa27BKjJ5wCaWigaBNxUbgA3cUtJRQIWikooAWikooAWikooAWikooAAoBJAAJ606m0UALRSUUALRSUUALRSUUALRSUUAKABRSUUALRSUUALRSUUACIqZCqBk5OKdTaKAFopKKAFopKKAFopKKAFopKKAFopKKAEVMSM+Sd2OOwxTqSigBaKSigBaKSigA2gsGIyR09qWkooAWikooAWlptFACnkc4psa4RQ2CwGOlLRQA10JYEOy4PQHrT6SigYtJIiyLtcZHpRRQIHRXXaw4HIpRnvj8KSigeox/MXAjVcZ7+lPi3KFJb5x3FFFAPUVxvBDc565qPDABVC7cH/P86fRQA2BWSJVbGQOcdKkHHSm0UC1GKgi3bATnnr3pVXdhioBx0p1FAxI0WNdqjAokcoCdrMPQdaWigQ3zAW2gncMEjHalLqOCRk9M1E2DMgZWyuSCOhqQqCcn7w6GgYLhBy5I65J6Ck3M0nDDbt/yaI4wkewksPegRqJN4GDjH4UBoLGpVVBYkgYp9JSHp60CCVmVMouTnpmkUPtYFhz90gdqQBvMyTxjp70+gYUUmaM0rgLRSZozRcBRxRSZozRcBaKbRRcB1FJmkoAdRSZozRcBaKTNGaLgLRSZozRcAxyecgnIyOlLSZozRcBaKTNGaAFopM0ZoAWikzRmgBaKTNGaLgLRSZozRcBaKTNGaLgLRSZozQAtFJmjNFwFopM0ZoAWikzRmi4C0UmaM0XAWikzRmi4C0UmaM0XAWikzRmi4C0UmaM0XAa0atIr8grT6TNGaAFopM0ZouAtFJmjNFwFopM0ZouAtFJmjNFwFopM0ZouAtFJmjNFwFopM0ZouAtFJmjNFwFopM0ZoAWikzRmi4C0UmaM0XAWikzRmi4C0UmaM0XAWikzRmi4C0UmaM0XAWikzRmi4C0UmaM0XAWikzRmi4C0UmaM0XAWikzRmi4C0UmaM0XAWikzRmi4C0UmaM0XAWikzRmi4C0UmaM0XAWikzRmi4C0UmaM0XAWikzRmi4C0UmaM0XAWikzRmi4C0UmaM0XAWikzRmi4C0UmaM0XAWikzRmi4C0UmaM0XAWikzRmi4C0UmaM0XAWikzRmi4C0UmaM0XAWikzRmi4C0UmaM0XAWikzRmi4C0UmaM0XAWikzRmi4C0UmaM0XAWikzRmi4C0UmaM0CFopM0ZoGLRSZozQAtFJmjNFwEopKKQC0UlFAC0UlFAC0UlFAC0UlFAC0UlFAC0UlFAC0UlFAC0UlFAC0UlFAC0UlFAC0UlFAC0UlFAC0UlFAC0UlFAC0UlFAC0UlFAC0UlFAC0UlFAC0UlFAC0UlFAC0UlFAC0UlFAC0UlFAC0UlFAC0UlFAC0UlFAC0UlFAC0UlFAC0UlFAC0UlFAC0UlFAC0UlFAC0UlFAC0UlFAC0UlFAC0UlFAC0UlFAC0UlFAC0UlFAC0UlFAC0UlFAC0UlFAC0UlFAC0UlFAC0UlFAC0UlFAC0UlFAC0UlFAC0UlFAC0UlFAC0UlFAC0UlFAC0UlFAC0UlFAC0UlFAC0UlFAC0UlFAC0UlFAC0UlFAC0UlFAC0UlFAC0UlFAC0UlFAC0UlFAC0UlFAC0UlFAC0UlFAC0UlFAC0UlFAC0UlFAC0UlFAC0UlFAC0UlFAC0UlFABRTc0ZoHYdRTc0ZoCw6im5ozQFh1FNzRmgLDqKbmjNAWHUU3NGaAsOopuaM0BYdRTc0ZoCw6im5ozQFh1FNzRmgLDqKbmjNAWHUU3NGaAsOopuaM0BYdRTc0ZoCw6im5ozQFh1FNzRmgLDqKbmjNAWHUU3NGaAsOopuaM0BYdRTc0ZoCw6im5ozQFh1FNzRmgLDqKbmjNAWHUU3NGaAsOopuaM0BYdRTc0ZoCw6im5ozQFh1FNzRmgLDqKbmjNAWHUU3NGaAsOopuaM0BYdRTc0ZoCw6im5ozQFh1FNzRmgLDqKbmjNAWHUU3NGaAsOopuaM0BYdRTc0ZoCw6im5ozQFh1FNzRmgLDqKbmjNAWHUU3NGaAsOopuaM0BYdRTc0ZoCw6im5ozQFh1FNzRmgLDqKbmjNAWHUU3NGaAsOopuaM0BYdRTc0ZoCw6im5ozQFh1FNzRmgLDqKbmjNAWHUU3NGaAsOopOaTNAWHUU3NGaAsOopOaTJoFYdRTc0ZoHYdRTc0ZoCw6ik5oGTQFhaKbmjJoCw6ikAJ6AnHpQQaBWFopuacFYgnBxjNAWCillK7jtAA9BTMmmFh1FJzRzSCwtFNzRmgdh1FNzRk0BYdRSxoznApmTQKw6im5ozQFh1FOjCspBJD5+X0NM5p2AWim5ozSHYdRTc0ZNAWHUUgyTgc0EMpwQQfegVhaKbmjNA7DqKbmjNAWCgDIz2pSpGN3Q9PenyxuEAIBCjJI7Z9aLMTZHRTpOAAAR6/WkVC33eeMkelFhiUGnAL5TMQ27ovpSBztCnp1osK4lFK7BjlV2j0pq8nFIZI6qFBUk8DOexplPADsoRc8cgmozkGm0JC0Uq45JPToPWmgE9MmlYYtFJz71IsTmRUY7MjOWoWoNjKKQ9aKAFopPzqSMIXX5urYxQlcVxuDgnHApCCDgjBqSdmEjruH3ucVFk0NWYLUWikXJIHrShSce/QZosMKKV1KsR1wcZHSmqcMCRkdxRYBaKdIUJJRSvPTOaWGMyFuQMDOTTt0FcZQOTgYqXavlZV+cEnPH5UgbdkKAOAAMf55p8oXI6KeVKblIYOOOtMweMc8VNh3Cik5ooAWlI4B9aWMlTvGCQaYxJJzRbQQtABJwBk0lKrMrZUkH1BoQwIIPIxRTi2UJOc5654pFKhD13Z9Ogp2EhKKe2DGrsAOwAPpTXKknaCOenpQ1YYlFJRSAWilUKY2OTuGOPam596LALRmkGSe5+lSSuWYMAFO3GAKLAMopzBcjYcnvngUsgTC7CQcc57mnYVxlFKqMX24OaWRcEgKQAe/Wi2lwvqNopM0/BRA23Icd/rSsMbS4OM449aTJJyR+VOk+8FDbh1GDTsA2ilcBe+cgEYpqgscAEk9qVgFopyEpyRnIIxTCST1zTtYBaKSnoyBCCuX7HPFJK4XG0AE05lOwPwAfeiPuNucj8qaQrjaKWRGQjcCMjIpFBJHbPc0rDClIIGTTe9THKqGddy4whzTSAiopWA2Bgep5GOlN596QC0Hikp5CsF2lmYnmhIGNoqVl8uH7wYN27g1EFJBPQetNoSdwooKsBnnHrSUhi0UEMOxp3ltuK9wMnPGKLANopDRQAtFKil87VJOKTk84NFgCilZQFUhgcjp6U2hqwIWikooAWikpxXAB3gkjpQlcGxKKdkqn3eeoPpTKbQC0UlKqlumSR6UrAFFKnQggknpz0p7RqkgDt2ycdvb600hXI6KcQgCkN16j0pZw/mFmXbu5HGKLBcZRRtPlh/4ScdaEBY4HJ9KVhhRUknl7tsfC+rdaTYvzDzMkEY44NPlFcZTlUtk8AAZPNM5/CnuSoC7cHpn1oSGIVIGcHHriko3fLg5Ppz0pKTBC0502nG5T9DTOakgDsx2nGBzz2poTGUU4KGJIbAHOSaZSHcWigc8ZxSc0APKny92DjoTRGhdsAgY5OTikGQ20g8dRQ7bsYUDAx9aoWo5ULBmXovUkUFV2ghhknp6ClBkjj+ZRtk9e+KiJ5odkCuSROySZXk9B70j8n370rKUwSRyMjFAbcWZmO7Hp1o8gGUoUkbu3rSY4zmncGIYbnONuf1pWGNopOc4p7bRgLznH4UkgCMZJ5Xp3pVPBX5efUUjDYcE5Pt6UOylAAgBHeqEI6lXKnHHoaSkCscYB5p6LuAC8se39aTVwvYXevlBdnzZyWz1pVLMoTqM8KO9N25BweR0Hc00Eg5zg07hYeELKzZA29QetNyRnr6U4ykqq4AAHbv8AWmsRuDINuPfJzRp0DXqJ1NSYaLa7BTuHAPNN3Dy9uOfXvTXJJ5/DFLYB4IYYIOc9Se1PcLtBbIb+6B29aqvgEMWIxx14pTJwCSTngd6dwsTeVIULhTtHemqpZwg6k4pQ5IA3H05PGKV1w7b25xkYOcmiyDUR0K8ngZxmlZdu3JByM8HpTQ2XBJOM8460rDeC65I9c9aNBa9RSyjG0c45z60ymndg7VLN6UoILADn8aW5SQtFSzScjqGB+b0JqJ2LEk9TyaGkJXY9NoGXyMjg03qaZuIZc4xnoamGEBBBLkfKQ3SmHmRinFWCK5HDdKXcwBjPTOSDSSHkqp3L2pWVg1G08hBt+bORkkdqSLOScbvam5+YE8ihAPCtu+XPHOfSlyzhize/zHrTHfLEqCAe2e1ICSDkjt1piswoqSNArkSLuIB+XNR4PoaTVhphRSYOCcHA60c+/NIdxS7E5Jz9aTJ9etMdtoyQce3anDoO9AEgJkARmAAzjNNIIyM9aarA9DnHWnOwLdAPpTCwqJuBbgheo9qaetPjUOQmQCT34phzuII6UugEiCMf6wN+H04pp2kccH07UjOSiqQOO/c03NO4rCjipD5Xl4Bfdn0GMVFT0kKnIA6Y6UkOzHh1WNSEyec7uhprELgI3VQDxTMk9aSnzMViVpMkHaBjjjjilcvLmUjAHGahpckDgmi7CyFZSFDHoeh9aQgg4Ip0ZXOHHHt2pGKK6hs/MM4x2zRbqFx0Jb5goyCOR6imHr7U52BJKgjJ4HpUe4b9meeuKGNIWnxpu5YlV6bsZ5pg59Pxp7Ham0NkEA/Q0l5g0CHa4xjn1FOnJIT7n3cfKaYzFsegFNov0FYXnHtQRjuD34p8TNhgCMEZIPfHakZ87RgAZwSOKdrjuKrYiIO3k9xzQ+EYhCSMcU11CtgMG9xTQQaL2ELk0lFFIY5HZDlTzTgwOBJuIHYGo6KE2gsTB8ybgMEfdAFIELzFXcK2eSajBI6UAkDGcCne4W7D1Z4XOMdMeoIqOldkzlcgU4gR7XkU7SM/hRa4DKU05PuiRVOM9/0p07CSXK5JY88d6LOwr6kYyeB1pXRkYq4II6ikYMjbWGGHalmZkCbuQ3QjtQkPUSnbQU3Age2eaiZvlJA3EdvWnA0gsTPGgVSH+YjkEYxTfLIK7gfm6YpgcA/Mu7PH096CzHrTYJMkuGTd8g2qo70kAQxNKRuTpkNjFR4yO2KWTKNsXay5xnPan1uxW6Icr7HG0cbeaVTtB4ByuPpUbMC5OF3HrilebEQRsAA5HrzS6jsBJJyaeWAIKAqRz1zz61GTxT45iowQrcYwR0pJg0KkrI+8fe9TSB+WJVSW7kVB8kal88E565qQfh+FO7CxJmMRkEEseh9KaD9Pxom2xqCzDJGTg5+lRy7VJkTcw4AXPNPUETMEBXDcnqDwKVjHuXapAAwx68+tV8HksNx6jjpQpbqwVR9aL9g5SdkDSlEO7ng+tEaNksCBt6nPSoQx3ldpxjr2NOZm28ZPtUhZj5pnVTHgMCwz7e9OdxHIAmH7DC57dagG4s27BXjH9akjd0JKnBIxmq5u4OIu3c2AAcddvNMUOOJEKt6Ugd0ZihO49s8U5ZmUCTZlgM46nNLQLMI5F37WjJGevrSmUKvl5IDc9fSo3ct8wIBY+lJGwYZxypx+NAJE2w4Ut8u7pn0p21hEwHKdT/So6AzAEA9aLoVh2043HgHjNNLYXk8DmnOpEasG+U+/emUhofG4UE4Dcd+lOjaMcMu4Hg+oqux8slyTj09KdD5cbF2UtuPIzVRBpEjph8LkqT8vvTakdvLmJjYHHQge3Woycjpik9BIPmOepx1pxd/L2Z+UdqA6iLZsG7OS2aiEwmRockAHlgP8+lCHYnyPKG5tw7KD0prJggAg571H3+8fxqWHccoh+9xj1ovcWwithQMAYOd3enSMG2gKS/du5qM5BIPWhXWM72AIHrRcYpViu49OBzSouW2kYPucYpsbngnp6CiQ/OcKwHuP60WEOVH5KjIXk47U4SBY2RUOT3zyB6VHubGCePSkovbYdr7ikk9TTo0LsQOgGT9KV2VWOAGUDjqPxpu5TGrI2Qw5BHIoS11EOAVlx0bNKI8B9+QV/nUY4NPDJ5O05LZ49MUIHdCOhU4yOmTSIxVgRxj0pFGW5OB3PpQ2M4BzSHYczsU2E5AOaaB3pKedxiBCjavUijcNhI3KPuU4NOYsADkfMOxppCqBzkkdPSkJzT2AesrKpC8Z6n1prsztuYkmm0Um7gFSje0eTyg457f5xUWaXdkYB46daEA44IwuSMc5pVABA3gZGc+hpqvtJ+UHIxz2ppNO4WHONrkbgcdwaUOBw2Dwcf40wHIyKa4YkENgA+maVwsTAbwoRWznnvTXLE4YnI45qJTskOxW3HnIojkZjhslsZJpsfKx+QCCzBRnGTT127mBJGegFQhy0pTA4XP0p04Rwu0OpB52txihWFYmMT+V5hTC56/0qOmq437Tk1IzIYwqphh1OetDsGqG5NSFlMRBXkc5Hf2qLIFK0h+RQg2hj160ILXFRtoV1b7wyKexjEYKsd+7nio5FTeNp3AdCRjmmM4QhdpOemBT2dgsmOkcgbmfA708uDGAQoA5zUfBHIFNlVWX5gWGeg70kOyJXYsRngDoM9KQAk8UgPy8nNNZ1DhScE8ikKxJKdqfL83Gce/pSITgEjkjkUxAeTk8nvTsgcdKB26EkkhZMBQoxjC96a5QtlA2Pem54yOaZlgoByxzyRxTvoJRJyVYggBcDnmkuHiEyBH4HB/2ie9RYYNx90Dp3pFjHmGQ8txjPampW3Dl1HTcThEbK9c+tA3Bjk5HbApe2KRtwX5cZ96V7jJC5yCMKQMccUiTAq+U6cA9D9aZk+ozQCSvzAA96E2LlBGDjI4780rZAOBk0wptQiMAenFCAk5L5GO1IduqHoSUBPBxyKbli+ADtx1zSEMzFSML1GP5U7BD56igAG4E85BP5CpQ/wB3cM47etRFgBkkAUhXdjOeuetMVr7inLFtwAGTgDpjtSgAAAAYHFFFJgKuAc449KQkdzTASASRt57HNHCbmPQnJoHYc4JGFODS8hCB1x3ppPIXbnP6UeWAAFJAByOaL2AVDICrbsEHnH9KkZAN0m9SxOOvJplHHoKdxPUNwLFc8inhQFLbl4OKiBJY8cdj60mX4yvfBx/OhIdrksxEr72AJ9SKaryCQEKAvqeoNIqqo4GKX+dLmEKzFiSxyT3NOUKR8xxx271DuIX5yoJ44pQzAHK/TuTRqOxOrhEwv3j3B7dMVFxnGefSoz85R8fMD2PT2pcM21wBuHqab1Cw+lpm8iQA7QCO/WnZ9OtKwWHK7KcqxBp6z+UrMEJbGBiqw3Nh2OCByOooyEIUAncapaMHEsh18orlxyCBnrTXcsq5JIUcZqNP9Z85by/9nrQJYtxRiGJHHNGrFYDnHQUwO5PMZHzdc07cN23vjNLUjQ1flfAB556cU4nHJ6U2Q4Unn8BSR8KM7vxPNAeYOVkDL6HBp+TTSAwwQCDRuIY9MYz0oAUlt2McYppHyneNwpVYMMjp606gBqhtp+bk9D6U5c4/+vQaQkAE+lG4MdzSZPtTU3ZJbHt9KUmgLC5PtRk+1NVw2eehxS5wRQIcCQcjFF1cLI8aBMMq4GPT1qNslh0x/I04D86adh21uBbHHfGcCmjLAOq9emaUqN24AZp1IBABvLd8Y60mGZTnK+lCqVBy24+tIu4Agks3rjimA8ZxjigsBgEjJ4FRsS2VXg8ZJpVOeWUDnj6UrAPJIHagk4zTDsbKEdsnJoLFcKEyOh9hQgHRlsfMAD6g9aQAh85G30pFLFclcegpUzjDHLd8DigBULknIGO1Ln/CgnAzTFKFiQcnoaAH5PtQzYBJ7elMMig4JHr+FKx+XIwT2yetAIcCTzikcqflbuOlIWwASM/SgKOCR06UAgQqF2qeg9aIgfKUN6euaUAA5AGTzQTjk0XHccWO08gDqc01NyljuOCelI5bb8uM+9KDx6UXEKAAQdo4pCzFuBlcnNNG5lYONuSQOacoxxngDAFF7BYAAM4HfNDc5wcHpSk96amOTtwe+aAAkIozk4/Gl3jPJAB6HNLTFGRlgM9jQG48kdz1o4Pvg1Eyo0nzcsOgz0qXtQFhpVSwbGCO9ADbMMcn6U6ii4ajNrMoJOG74pE2glMlu5z705AwzuYNzxxTqdwEC7RgHAHbHFDvtAIBOTikddylckZ9KUDAApDEU79wIGM9ad36UUUC1A89QKRhkEEDmlopANbgALgH6cU4HI7UU0KNxOTzTAcGB6EGkZwuM8ZOKTaNm0YHGOBShQMe3SgLC5PtSHd0GBS0UBsAoyfaimu23HGeR2oAdk+1HPtUbgjLLuJPGM0kpfb+7zuPoaLAkSFgCASAT0pEyC2SCCePakZFYgkcg5ocrwpHBNMB+T7U11DYJGSOnNOHSikAxt5bgLjsT1BpWcrjofXPHFLgZJ9aCAQQQCDQA3DFsZwAc/X2pyqAOBS9qKLhdjSQHyW/ClDZz06+tBAPUZppyp+VAcnntQA5nCjJ7mlJ47fnTVVQuMDA7GggZB7jpQAAtk5UD05oEsgiKvk5OCo/wpGLHBGBzz9KdjnOadxi5wPajPpUZ+YlXX5exoLFZAoAAI9aVhWHnpToXieJjhg3QYHf3qMbsknGO3NOLcfShaBYXJ9qOfamK+V3YPPQHrSq29e4z69aAsOLfu3QD5jjBz0NGeKaFAJPc0nSQndwexp7hYfk4zxikQsAcnPPFDAMCD0IxTSxAO0ZwRnNLYBzyg4kIKADkE55pc8ZFJx+dJuG7bnmhu4CqwbPIPPakV9x46UNu/hC++aQfM2ShBU8c0WCwuXLA4C8/pSDf5hPAXHAp9FFwGqGGSSTk9PShW37gVwAcfWh2Cgk9hRuHt0zQAqDaoUYwKXmmliGA28YPNICHIYH7pIxmgLD/wABRj2FFFABwOgoyfaiigA6Hr+FAbnqOPemuwUc9zimmMNnJOCeeaAt3FlOCG2bieM+lPXOO2aKKGAflTWY7TtwT9adSAAHOBnrQAhHzhst+fFO/Siii4DAhG35uB7YzSYUy4OC3UVJSYGc45oHqLUfl5fcxJxyB6GpKaq4YkE4PbsKLiVw+bf22/rTqKKAEUAZIHXk80vPtRRQAZPtRz7UUUANAAYsAMnvTlGBjOfrRRQAZPtR+QoooCw1dwJzjHb1p2T7UUUAB5GKRS3OVxzxzS0UAGT7UZPtRRQFhskayDDE4+tOAwAB29TRRQAfgKMn2oooAMn2oyaKKAsB5GKRQQoBO4+ppaKAsGfYU0LhMKSD6nk06igBOqj1HqKU89aKKAEVQpOB1OTS8+1FFACEDOcDPrTSrFwxc4GflHSn0UXDUaVywY9R05p35UUUAHPtSYGc7RS0UAMXJwzAA4p2aSilcYuaa6hhgjPOaWii4Cg8elIxO0lRkjnFFFFwFBGBxijNJRRcBc00Abi3U9DS0gUBiQOT1ouAhDbiQ2RjgGk2ybwd+Bjnin0U7gI5xggE89hQc7h8wx3GKWk2rknAye9K4CkbhwxBHoaXNNRVQEKAM9aWi4C5FGaSii4C8UcUlFFwF4pGGcckYOeKKKLgLxRkUlFFwF4oJ44pKKAEOSShU4x1pAmCuDgDsB1p1FO4AQpByOT3pNoyDjkdKWilcAIORg8Z5pQaSii4C5oPIxmkoouAmGCgDk+po2/OG3Nx2zxS0U7gKMUZpKKVwFyKMikoouAuRRxSUUXAMKWzjn1pc0lFFwFzRkUlFFwF4ozSUUXAXNGaSii4C5ozSUUXAXNGaSii4C5ozSUUXAXNGaSii4C5ozSUUXAXNGRSUUXAXijvSUUXAXNIMUUUXAXIozSUUXAXNGaSii4C5ozSUUXAXNHFJRRcBcijNJRRcBeKM0lFFwEGdxPBX+tKQpOccjpRRRcBc01FCLgEnnPNLRRcBMHcDxge1AUgk7ic0tLRcBqtuXIBHpkUbBzjIz1paKLgIVyV5PHv1p3FJRRcBeKax5GMUtFFwFyKOKSigBc0E0lFFwEQELhsE5pWwVIHGaKKLgAGAATkilGBn3pKKLgLmjNJRRcBc0ZpKKLgKcHrRxSUUXAXNGaSii4C5ozSUUXAXNGaSii4C5ozSUUXAXNGaSii4C5ozSUUXAXNGaSii4C5ozSUUXAXNGaSii4C5ozSUUXAXNGaSii4C5ozSUUXAXNGaSii4C5ozSUUXAXNGaSii4C5ozSUUXAXNGaSii4C5ozSUUXAXNGaSii4C5ozSUUXAXNGaSii4C5ozSUUXAXNGaSii4BmjNJRSAXNGaSigBc0ZpKKAFzRmkooAXNGaSigBc0ZpKKAFzRmkooAXNGaSigBc0ZpKKAFzRmkooAXNGaSigBc0ZpKKAFzRmkooAXNGaSigBc0ZptGaAHZozTc0ZoAdmjNNzRQA7NGabRmgB2aM03NGaAHZozTc0ZoAdmjNNzRmgB2aM03NGaAHZozTc0UAOzRmkooAXNGaSigBc0ZpKKAFzRmkooAXNGaSigBc0ZpKKAFzRmkooAXNGaSigBc0ZpKKAFzRmkooAXNGaSigBc0ZpKKAFzRmkooAXNGaSigBc0ZpKKAFzRmkooAXNGaSigBc0ZpKKAFzRmkooAXNGaSigBc0ZpKKAFzRmkooAXNGaSigBc0ZpKKAFzRmkooAXNGaSigBc0ZpKKAFzRmkooAXNGaSigBc0ZpKKAFzRmkooAXNGaSigBc0ZpKKAFzRmkooAXNGaSigBc0ZpKKAFzRmkooAXNGaSigBc0ZpKKAFzRmkooAXNGaSigBc0ZpKKAFzRmkooAXNGaSigBc0ZpKKAFzRmkooAXNGaSigBc0ZpKKAFzRmkooAXNGaSigBc0ZpKKAFzRmkooAKKKKACiiigAooooAKKKKACiiigAoopM0ALRSZozQOwUUmRSZoCw6jNNzRuouFh2aM03dSbvrQFh+aM03cKN1FwsOzRmm7qTP1ouFh+aTNNzRke9F0Fh2fejNMLUm6lcY/NGajJo3Gi4EmaM1HnFJuouBLmjNR5ozRcLEmaM1HmjdRcCTNJn3pmeOlPeNkIU43HkAUAG6jdTMMTt2tn0xzT1t7lvuwS/98mnZiug3UbqsfYrnO1Ld33AH7uNvtULWt0ucwS8ei5p8kg5l3G5ozTGDocOrA+4pM1IyXNLmo1OSAOppzKylgwI2nBpgOzS5pQgBCswBPv8Ad+tLGqksWchR0IHX0osydBopabnPfFKP1oHYWkpzI6orsMK3SkAJ6UCFVGZGYAYXrzSU85j43ZDLnAPHNR07CFoooHNIYU4ovlhlfJIyRjpQAoU7gc4GMUHaEOQQx5BzximJvsNpKKk3r5YAjAYdWPOaSAj/AJUVIwCAjKNuH1x/9ekZgVCqo479zTsFxtFOeJ4ydw6AdDmm0thhRSU5ApYbjhe59KAEoobrgdB39aKACin4jMXcPk9+CKYB+lAgopKkkKmNcKFK8f73vRYLkZpadGAQ2Wxx6dabQMKKKKACiiigAopKeqK0ZO/5s420LUQ2ikpWBXGcjI7igYUUUlAC0UUUAFFFFABRRRQAUUUUAFFFJQAtFFIOenNAC0U5o3VFcjCt0ptABRRQQRQAUUlKAWzjnAyaACig9ccfhRg5xjJ9qACinRxvI21Bk+mabtPJxwKdmK4UUlLSGFFFFABRRRQAUUUUAFFFFABRRRQAUUUUAFFFFABRRRQAUUUUAFFFFABRRSUALRRRQAUUUUAFFFFABRSVIio0bEkhx90diO9O1xPQZRSU4phA+RgkjGeaQxKKKKACiiigAooooAKKKKACigAk4AyaKACikpaACiikoAWikzz0oPvxQAtJketJSZoHYdmkppb3pM47UDH5pCaYWpCaVwsPzSFqZnJwBzU8Nldy/cgfHqRgfrTSb2E2luRbqC1aUWi3LR7pHjQD0JJq1Bo9uqsJXZy3QjjFaKhN9DN1oIwd1O2thTj73Iro4dJsw4Hk7iehZjUn2W3XC+RH8v8As1aw0rXZH1mN9Ectu4o3e9dWIIR0iT/vkUvkQnrEh/4CKf1Z9xfWV2OT3VLu835UjUELzg+ldNJaWhfIgjC+m0ZFNextA5xbxEdsrR9WkuofWV2OWLdqN1dQtlZ5/wCPeMf8Bp62sKnAt4we3yil9Wfcf1mPY5ZELqWDqMHGM809be5Y/LBIfoprqtnlkrtC+2Kc3bgDjtV/Vu7JeJ7I5pdMvmPMW0e7CrMGiTO4EkyjJ6KMn9a293G3Ax3PensW8sYPAJx61pHDw6mcsRMyl0i3VCjs7HOc8CpF0uyV8mPdznknFX5CuRtGMDnnvS5U5LZJxVqjBdDP2s31Kh0uyYbhbqOem4/40z+zLI/8scf8CNXWYk88gdKHGT8q4odKL6ApzXUzzpFm5wEcE+hph0O3YkRyyD8RgVqkmM/KecYPFM5J/wAKHRh2BVZ9zJTQfMYqlxjAzytC6JED887t/ujFbAyuGz1z0oXZ5fzZzn86Sw8OxTrz7mfBpVnGdxRpMf3mqeK1to8FIUUjocVZBKEOCOe3WmZFVyRS0RDnJ7sVQijIUYz0pTtYkgKAOeTSI+DwA3PSk7kgCqFqObbhSpPTkelCuUOVAz6mkpQVCnOc9qVxW0E+UjDrx2qKWztZIubaM+rbcGpSSeuOmKT6Yo06jTaKMuk2jDKq8ZJ4IP8AjVa70i4j3LHKrDOcHg1sMzHAJ4HQUh59azlSg9kaRqzXU5i8t54QC8DJgfMw5BNQKSxAHzHpiusYqM/rVSfTbSRi2zy2PO5PWsJUH0N44hfaRiARhFJdt54YY6UCQ7CpAJJzk8mp7zSri3kZ4yJweSw5z+FVJHYt82M/TFYzTibxalsyZ2DRgYIbp14/z1qNSUUb2OD0JFJHKyHKsRzmpH8zZuYkqxz04J70k09R2toIpLHAyakVwqFTGpOep61ClwyxNGchM8980/cChAX5h1OaBNdx0ilSMgc8jBzSIxKlFUE5GeORTvNyiptUY745/GmEtFKNpzzwynpT0EtRXkLqqkjC8Cm03IMrHPznlvelLAMFIJzSYxxyDg8GgjBIzmnniTfFuAHr1FEsbbd7YwxIyOlFhXGFhjGRgU5EyC3BC9RmotgC7V+X0qWJVkQgsAQCfmOM00rg/IIynzb89MDFLsVXGGDDjORUeTzg9adHIYydjYLDB+lK66h6EkrRkEqNrseVxwooR4zhXXav8RXqaYcGMH5i2ce1Np31FYDjJx0op8cshXysKy7sgYoRyA8WAwBywx0/zzSsh6iKyqpBHLdCD0p/ybSGwrKMD/aqI0pdmQIei5A4p3CwoMZXBGG9f6U7zQ5JkyeOAPX1qOkYhRknApXYWJYwgUk5LfwgYIP1p0m3zAsqhAowcDr+tQA8gjg0EljuJJzT5hWY9kKqGPfp9KZT4sSxkiQ4UcAjvRGgMgWRtgPJOKTQ7jeetPkREwFfeT1I7e1OnRw26QYz0wOKY4QEbGzxz7mnawXuOcRxlRkP3bB/SkXZgk52ngY7GmZOMcUUN9gsPfDhnSMgDrzmj5WQlpDuA4BFM6Aj1pY13nbxn1J6Ur3DYQckZ6UqFcMGz7Yp8IlEhWMBuDu6Yx+NMeOQRhypUNnBo5Xa4Cum1VO4Ent6U2hceQNxYuOvHFPMUgIyjEEZHHUUNdgGEEYJ6HpRT2CbgF3AY/i7ULEzybFIJ9c8H8aLBcZRSUtIYsRAkUuMqDzkdalkXfJJ5aABTnAHQVFvYKV6A4NIh3MVUFj0wOoqk+grdRO/NSSrHuzETjgHd2NN2ncBjk9KdHLHlWjJyOGBHehLcHcRdgyHBJHTH1704mIxYKjeT1HYUkkbqm8rhSSOOlMpXaCyJNytGEKnK9Dmo6kgI3BCwUMcMT0xSo8as29AwPQg9Ke4ESna2eD9RkVKAyq8vlqVJx14FNZVKl1wAOMZ5qPNC0DckRwisAoYsMcjp9KQbRF975s42+vvSKu5SQenOc9qTBABIOD3pXYWQnapOJNo+RAOppPl8vAJDE9+lNo2Dcmknbb5XyEA/eA61HvJUIxJUHpTDwM05Au1ixwe3HWi7bC1kN5qQCPyxywfJz6U64kVn+XcV9GGCaEIaXcqgHsmODT62QmRUU/y8swyBt6j+n1qPkdRUjHyRsiqTghhkYplPYFUHIOeo9KSME8gE7ecU7agnoJSU5yCxwMDJp64jOSm7K9x6igZEKWpITGcq65yMLjrmo/xosIcqExmQ8KDjPvSMpCgkjnpTeeoNKCQMZ4NGgBRSdqUqwUMVOD0NIYUU6Ly8nzAxyOMHv705QQu8ABAwyCetNK4rjVQsrMCAFGTk0m1sZwcetDMWJPAyfSnSOrMCibAABwaNA1GMCpwwwfSilZi2ScEnv3pRtCZ53/pijcLgUYIH4wabTjgJjcdx4IpoGSM8A0WBClflBJ69KWRVVm2EFR39aWZ2bCEghBt4pFQFNwdc5xjvTeuiC/cbSUUoBPQHgZqRj3ffGoKgbRhSBjNR1JneNgPyrkjNOxuUlU+4vNV8QloRU6IZkHbB6+lDANyqkDGM+/entuiZlUjAG04PWkkDC6CmZyrA5OeBgUwldmAMtnr6iiJ9rg4U9vm6U3OT2/Cm31FYBjvSuwJwgIXrg/SkpYwH4JC+5NShsSipY4d8bODjaM9OtJ5L+SZCMKPXjNPlYXRHSxo0jBVGSaavzcnj/8AXTwVCqVB3c5zRbuA2ipIghV9y/w8Hpg00+XhME5x81FtLhcbSqrMQFUnPSnPDKoyU7Z56YpjykuDtWMngBT2xRbuG+wroyEb1IHX6ipI1jctI+Ao6qDyfpUYZ2z5jkgDCioyTvx1XGc0/QLXJpWDsWCKp44HAqMmnPJhPLBBXrkjnNIWHlAbcHPX1oeoLRWGk0HIJBHSnxpmBpd6jae56/hTDLuDbySzHI5wM1PQoVN2d44APX0pXcyKzu+Tnoe9IVIhLI4PHzKDzTIY5ZTtjjdhnnaucU9RabscSnlYH3wck54IqLdWjFpd1MFDhIgo5yckirsek26hfMZnYDB7Zq1Rm+hDrQj1MOMBmwzbR2OKkjtbmc5jgfHrjArpLa1tIiAIlUf3gMmp22ZwgyPVq3jhdLtmMsV2RgQ6NM3+tkVPoM1ch0i1T7++Q+5wP0rT2gvt3D69qAjNnAzgZPtWkaEV0MnXm+pDBFHbnMMaJ9FqbaSRuAGR+FJtznbzjvikJz04rVWSMr3YDAOSOKeHUAfIM4xkdaY7ZAQ465GBSDine2wWuPDFid3JPcmmD6Ug44YjrTqV2Ow4PgkJkZ4oyFOV7HIJpgJzx1pztuOcAfSnfQVgDDuM9aTrRRSHYVgVPBB+hoDHduOSaFJAIz1GOlN7UPyEPkYthi2SevtSbCAC3GelMY45PX1pSWzy2R0Ap6PULCspU88Z5opMsSSeR29aDjvSe47dwpaapyM5zTqQBQ20x7cYOc5zSEgEDPWkK5OT1FNXQCj86WkppYAcg+1G4Dj70gORwc80p5GKQcHGKLAINxXqVPpQQpIz17U4jPBHFGPXrRoMRcEnHUdaU0jAkcHH4UjY3Akn/GjQQvzZP6UoIPQ96Ogpq4Pz4PNFkwHUGkQkg8Dg9qQFguWHPoBSsAoAPzc9OlB5IOaUUm3ggHGaADaOwpHC/wAR4p1BAIwcEUgEwMelVbyzgueHQBiOHHUVb7U3ndgrx60nFNajUmndGBc6VcxMTFiWP0HDflVNmkX5H3Lg52n/AArqwvOetMlhjlXEkat9RmueVBPY6I4h9TlQcCjJDA5GO9bs2kWr8x7oz7HIqnNpFwufLdJP0NYulKJtGtBmeHJbgfKOpqQtnk4FNuLe6iPzQsuOpIyPzpgNQ1Y10ew/B3A4B560oyG68fypgal3UXAkieVA438Nxwe3pTUdiDvAXB6ZzSZpThhzg59aOYVkPyD0NRsCX+8AvcYpwOB0H4UijBJz17U0FhTkHdngdRQxJ5XaPc0E8UiMuCF6A4peYCs4BA7k9qXcu7AIz6U3coOO54pCzZOFB9OetMLEn8QJJGOQR60LLl2wSJD94+opAaM45ouKwp5WkUYUDOcd6QdSScjORSBVDFh1PWgY7cCSO9NOXT7oz2BpQDggsfrmlXIA/rRcLCFdy4YZx60BjtJ28+nrS5NGT6CkIQN84XaemfapWkdiWLHJ681GSxI6e9Ju4OQePamNokaRyioW+VelNyD3pvy7Mfw49aCAY8KSBjjFGgrD6TIpgf5MhG+h60pQF92SOMYzRYLDsj1opCBknj3zSKVC5xgDt6UDFkZguF60cnGWbGOhPFLweaWi4hqEbtyk5GR1qYM6jez8g7cZ5qJhkds9qZhtmDycduKEwtcmjmVDho1fII5psWFwGLMo98VGE4UnqtKGDZKkEA022FkTrGcMzK4ToMU+aPy8MuHjBAJxjJqoueCwy3fBpVdmzkEfU07qwuUkdg2W6En8KZC/y70yu4dutIrB8jHGcUqgKAowMDpUj2HF9sbDA55BxzTV5+bGMilxznvR0HFFwQEZFMLlc7uBkAH1peTgk7T6etOIBHIBoGRqr7sl8j0qQe9FITnG09+eKNxasdngj1pu0c9TnrRuU5GelChsnJzzxQAig9xjnjmpGdioUk7R0Hakpg+U4LE56UBuSxyMjZXHrgjIpjN/EcdeaM0jBWGCAR2pBYHAZecgeoNCspJAYEjrSNuyAuB7mkI2lnJ49MU12GPpAdjhgSGJ65pMsUBGASO9BOOTn0+tGwrEsQDSgOwx3JpGmKrzjaDnJ9aYWw23GeOaTG8AkEd8U0Fu44t8u7BIp5/dsdr5BGDjuO9Ij7VZdoOe57UwsoXJPHrSuKxKzRhxsBKDse9EshkKlsAAYAA6Cog3zEc8Uvbim2wtYerqI8BRnOcn0qVWgUB0++DwrDIqrnYo3ZY/TrQ+4fdHXqT0oTYWuTO6PyB85OWzwKjUMwBCtyM9KYSQfkAyTkmnrIVJCsMsMH1xQO3Yl2x+QXJO/PAxxinKHEITzC5GWKY6VCWJHJNIXCLnpjvTTFZjtvy5JHPAHemsSqnC5PalZlKDGQ3QntimMSSCvPPNIaHKCRn9KXBxnGaRZGRwVHXvSrOwRhjYD156ilYNRQjEgAZJ6D8cU5mwhiZRuB+9np7VHNK7TblVVX/ZJ4oLHGDT2FZ9R0Sl5Ao5J6fWgyOGUDaAuTwO9MVjkMCQR0INA4AA7Uk7LQdh7spxhNvHPPWmxsCQRgjPfvSZNIwJA5PXtRcLE5UMS4wE3YOBQ+yMHypWO4nKkdBUO446ik6HJPJ6009AsSo7I4dcZHSm5JzyeetRoRyQSeacTkdcUtR2JSyeSqhTuBJJzUJO7KhiCPSk+YP1+XH60ABST60MEh2SCBjg+9GfmwOtNVgV3YP0NImDlgCCfWkFiUkBcFTuBIPpSUSybyC2BgAU0HPamxJD9x9TzTg7PtRnYL071AxO4LgEHrz0oDMJM46d6FdD5ScAhPLQ+YMnkAk4qMsQMgAnsKaXdWDIcHPY4phBGWHPtTbTEkWFuGMZyBhkC/THNIrr9nYgsHDdMdR61Cr5XPIz2NLupc/cOVDy7SKnmMx24IBPSi4COVKgr34Oc+tRbm3kcY7etLuocmO1iQHHQnmio91LupDsBcLy3bnnpR5z7kHDKOcGrNtp1zOASuxD3bv+FatppltBhmHmP6t0z9K1p0pMylWjH1MaKC5uSfLi4Y5zjA/Or8Gijgzy/gn+NaxJB6cDpil5JBzx3FdEcPFb6nPKvJ7aFaDT7SLlYVY+rc1YAwQAce1OyB/IUY5rZJLZGLk3uKh2OGAGc/hSE0YO7GOKDuXkDJzVaiHOxChGHbI+lRrxk8jPNP69qRlPuPpRuGgoIPXt09qN74wSce1IoPc04gCmrhoIz/MeNoPbtTHJ5C9eop2QT9PWjad2e2OlOzYroAKTJ3YwRipVjkYfKjH6Cnpa3TnEcEh/4CaapSeyFzxW7Icd8UgDd604dFvpR8yLGP8Aab/CrcPh1gB5tyP+ArmuunluIntExliqcepgsoPU0hVieCMdxiuqi8P2QILtK592xVpNJ09OluD/ALxJrqhktd7tIyeOgtkcXtJUZ4PtT1VidoUseuAK7hLO2QYSCMY9FFSBFHAAFdEcif2p/gZPH9kcSlrct923lP8AwE1Imm3zk4tJB9cCuzwKXj1reOR01vJmbx8uxyA0XUW6QY+rj/GnpoWoH7yxj/gddU8qJ951A9SarvqFihw95br9ZBWqyPD+ZnLMZLdo59PDt5j78Q+rH/CpB4duT1mh/Wtdta0pB8+oWo/7aCoj4h0Uf8xO2/77q1k2G7P7zJ5rb7a/Az/+Ebn4/wBKQevy5o/4RqTJ/wBMUZ/2P/r1cbxRoa9dQiP0BP8ASmN4s0FeDfqfpGx/pVrKMMvs/iR/a8V/y8X4EA8NHdk3Y/74/wDr04eGzjm7/wDHP/r08+LtAH/L9/5Db/Ck/wCEw0D/AJ/f/Ibf4U/7Jwv8hH9rw/5+r70N/wCEcP8Az9D/AL4/+vSHw2f+fof98f8A16f/AMJhoH/P7/5Cb/Cj/hMNA/5/f/ITf4Uf2Thf5Bf2xD/n6vvRH/wjTk5F2uf9z/69IfDkva5Qn/c/+vU//CXeH+9+P+/bf4U8eKdCJAGoJ+Kkf0pPKMM/slrN4/8APxfgVD4cuO1xEfqCKYfD12OksJ/E/wCFaK+JNEbpqVuPq2KkTXtHf7uo2v8A38FS8mw3b8S45qntNfgY50C+HTym/wCBVG2haiOREp+jiuhTVtNb7t9a/wDfwVOl1byf6ueJvowNQ8kw77/eaxzKT2aOTfSNQXlrVvwYH+tRtp96vW1kH/Aa7bKnuKMD/JrGWRUukmarHz7I4Q206ZzBIvrlTUeD6Gu/2jNNaNGGGVT9RWMshXSf4FrMH1icEBRXbvY2b/etoj9UFQPo+nOTm3C/7pIrGWRVfsyRosfHqjjqK6qTw/YkZUyp9GH+FVpPDq5/d3JH+8ua5Z5PiY7K/wAzRY2kzn6K1pdAu1zskicfUg1Wl0nUI+TbMw/2SDXNPAYiG8GarEUn9oo0hFSywzRZ8yJ0+qkUyuaUJLRo1Uk9hpopaDUWGJVeaytps74Vz6gYNWKKmyGm1sZkmjQHmN3T64NVZdHuF/1bo/6Vu0Vm6MH0NFXmupy81rdQ/fhcAdxyKhDHvXXYqGe1t5uZIlY+uMH86zdDszaOJ7o5gN75pd1akmjDeTHMVU9ARnFMOjyjgTqfwNZOlI2VWHczg3vRuFXjo8/aWP8AWg6Rc/8APSI/if8ACj2cuwe0h3KOQSDRkd6u/wBkXP8Afj/M/wCFH9kXP9+L8z/hRyS7B7SHcp7qQkEEGr39kXP/AD1i/M/4Un9k3X96P8z/AIUvZy7B7SHcpAgLgHgUoarZ0q7HaM/jTG0y9H/LNT9GFHJLsPnh3K4ajNTHT70f8sD+DD/Gk+w3v/Pu9LlfYfPHuRbhRmpTZXg628n4Ck+x3f8Az7yflRZ9g5o9xmRSZGc4pxtrodbeXH+6aaYpl6xSD/gNFmF0IoJUhjnOacDioyWHBBB96N1IY8sdwwR75p2aizzS7qLhYkJ9aQtgcDJ7Uzd7Uu6i4WHg+2KXNR7qXdRcCSjPsKj3e9KDTuA/PtSDA6Lim596XPvQIdmkAGcjgmkzRmjQLDhhRgUj5IwDg+uKTNGaAsDhiMIcH1NDDP8AERRuo3fT86dwBgGPIyB2p2RTQaXNLQLC5pEIIzjH1pCaN30/OgBSAcg85pcim5ozQA7NIeaTNGaAE2nYVLE8daEKgBMgkDpS5+lGfencBc+1DHIIxn603NGaQWHAgcAYFGfam5ozQFhxwe1LmmZo3UXCwoGGJHempgllxgL+VLmkzRcY7ikQBflzx2HpSZ96bxnPU9qEwsSM2OevFISSQeR6im7jRupJgPyKRvXbk03dSZoTCwqnBBIILH1zTyexqMnvSbqGwHnJI5wO/FA45HHOaZu96N1F2BJnPekwAu0Co80oJPQGgBWY5BXke1OVsjJBFNw3o35UnlymQERydOm3rTFoOGQcADb7U7P1pBFMf+WUn/fJo+z3JY/uZMY4+U0ajuhGY5GPxpTyuBkUfY7raAsMox/s08Wd2ekD/iKdmF0upEe2D07etOJB6mpfsN4T/qD+JFOGnXh/5ZD/AL6FKzYnKPcrF9gJwSB6UjElwQTx29at/wBmXZ/hX/vqnjSro/xRj8aaT7C549ykGyvIxkUfLuz+FX/7IuP+ekQH1P8AhTho8nedR+GaFCQvaQ7mfmmsW3AgjHetQaR63H5LTho6d52/KmoSF7WBksQRg9KaDnG0jHfvW0NHgxzLIfypyaTaL2c/U0/ZsPbQMKRpN2Vxx2PenPkjhsH2roF0+0X/AJYg/UmpVtrdekEY/wCAij2bJdePY5vJx3p6wzt92GQj/drpVVV+6oH0FLT9l5kvEeRzy2V43SBvxIFO/sq6YDIVec/erfoqvZon28jFXSLjvJGPzpw0iXvMn5Gtiin7NC9tMxv7Jm/56x/rSHSrkdHjP4mtqil7OIvbSJlBxz1oKgjnPWsqXWUUYhhZvdjVKfU7uXIEmweicV0zxEFtqRGhORvyywwjMsip6bjis+51i2jz5O6Q+mMD9ayIYJ7qUiNWdu5PQfU1tWGkww4eb96/p2FTGpUm/dRbhTp/E7lnT7h7qLzHgMQz8uT196sigYAp8MUsz7Io2dvRRmuqEZPTdnNJrfYZSMcDrite10K6kAaYrEPTqa1bTRrKH78Zlb1c/wBK9KhleIqatWXmcs8XTj5nLwQzTHEcTO3faCa0INDvZAC+yIf7Rya6hVjRQFCqo9OKoX2t6TZn99fQK390Nk/kK9WlklNazdzhrZlyatpFWLw5D/y2md/ZeKtx6Np6AfuAxH95iaxbvx1pceRbxzzn2UKP1rKuPH10xIt7CJB2LuT/ACxXoU8voQ2gjyK2e0I6Opf0O4SytV+7bxD/AICKkSGNOUjRcegrzWTxtrbHKtAg9o8/1qCTxfr7jAvFX6RL/hXQqMVsjhlxDhvNnqg+lLkDmvIpPEeuSEltSm59MD+VQya1q0gw+o3JH/XQ1pyIwfEVHpF/geu3F3a2y7p544x/tMBWVdeKtCgzm+WQjtGC36jivKZJHkYtI7Ox6ljkmm0+U46vEVR/BBI9FufHenLkQWtzKR3ICj+dZ8/j6ck+Rp8Y9C8hP8q4qinY4p53i5fat8jpp/G+sv8AdFvH/up/iapy+KtekP8Ax/Mo9FRR/SsUkDqQKaZYh1dfzqlBvZHFUzSu/iqP7zSk1rV5M79RuSD/ANNDVV7y7fO+6mbPXMhNVGuIR/F+Qppu4h2b8q0VCo9kcU8yX2qn4k5JJySSfWj8KrG8XsjfnSG8/wCmf61osJVfQ5pZlQX2i1RVJr4r1VV+pqJ9UjXrJF+BzVfUqpH9pUO7+40qKyG1qMdDn6LUf9ueiH8qf1GqP+0KfRP7jbAorFGuDupH/Af/AK9PTWI2/jC/VaPqNXyB5hTXR/ca9FZ6ahv+7JGfoacLuX0X8qX1KqT/AGnR63+4vUGqX2uT+6tH2yTOPLU/jS+pVuw1meHfUu4owKpi8bvGPzpfth/55/rR9Sq9iv7Rody1gUuKpNeheWGPqwxULazbqcHB+hz/AEpfU6vYpZhSezNWOSSM/JI6f7rEVYj1HUI+Y765X/toaw11e3boVH1bFTLehhkKCD70vqdXsWs0hH7TX3m/F4g1uL7upTn/AHmz/OrUXi/Xo+t2r/78YrmBeL3Q0ou4ieQ35VLwtXsb087a+Gq/vZ2MPjnV0ADxWsn1Uj+tXYfH8uf32nqf9yT/AOtXBi5hP8WPqKessZ6Ov51k6M47o7qefV/s1b/cejQePdPOPOtLlD/s4b+taFv4y0KU/NcPF/vxn+leV8GlxUWR308/xK3sz2S31vSLggRahbMT28wA1eSVJFDRurA9wc14bUkM88JzDNJGfVXIpWOynxFL7cPxPbzgjFRNa275LQREnuVFeS23iLW7f/VajN9Gw3881oR+NtcUDLQN9Y6iVOMt0dtPiHDvdNHozadZN962i/75qN9I09+tsn4EiuFTx5qo+9Bat/wE/wCNWI/iBcgfvNOiY+0hH9KyeFpPeK+46YZ/hn9t/ida2g6e3RHX6Mahfw5Zt92SZfoR/hWDH8QIj/rNOkH+64NWo/Hultjfb3S/RQR/Osnl+HlvBHRDPaD2ql9/Dcf8Fyw+q1C/huQfduV/FTSx+NNDbrNKn1iNWI/FWhP0v0X/AHlI/pWEsowr+ydUM4i9qi/ApN4dux92aE/Ukf0qNtAvx0MR+jf/AFq2o9e0Z+mqWgH+1KB/Opl1XTG5XULVvpKv+NZvJMM+j+86I5o/5l+Bzp0LUP8Anmh/4GKT+wtQJ/1af99iuoF9Zf8AP3B/38FBvbIcm6gH/AxUf2Hh/P7yv7Sl3RzS+Hr5u8I/4Ef8KR/D1+o48pvYN/jXQyarpcf39RtF9czKP60sOp6bKf3V/ayf7soP9af9h4a3X7xLM3tzI5saFqH9xB9WofQtQXosbfRq6d9QsF+/eW6/WQUR3tjIcR3cDH/ZkBpf2FhvP7yv7SlfdHGXNndW3M0DoPXHH51XFegssbqVYKwPGKwtQ8PK7l7RxHn+A9PwNeZi8jnDWi7+XU7KOPUtJ6HN0VduNKv4T81u7D1Qbv5VUdGQ4dSp9CMV4tShUp6Ti0dsakZbMbRRRWRYUUUUAFFFFAARnggEVE1vA33oYz9VFS0UnqCbRVk06zbkwgH2JFQNpNqTwZB+NaNHFLkiWqkl1M7+yLb+9J+dJ/ZFt/fl/Mf4VpcUcUuSPYPaz7mTJo6f8s52H+8M1Xk0q6XlSjj2NbxFJSdKLKVaa6nNSWl1Gfmgf8Bn+VRMGT7ykfWuqyaKj2PmWsQ+qOU3Ubq6doYW+9FGfqopjWlqesEf5UvYvuWsQuxze73pc+9dCbCzP/LBfwpP7Ps/+eA/M0vYvuH1iPY5/cfajdz1FdB/Z9n/AM8B+Zo/s+zxjyB+Zo9iw+sR7HPk0bq3jpll/wA8sf8AAj/jTTpVoem8f8CpeykP6xAw91G6tk6Rbf35PzFH9kW/9+X8x/hR7KQe3gY26jdW0NJtQeTIfxpw0q09GP1an7KTD28DCz70bq3xplmOsZP/AAI0v9m2Q/5Y/wDjx/xo9jIPrEDn91G6uiGn2g/5YD8zSixtB/ywSj2L7i+sR7HObvejd7muk+x2v/PBPypfstt/zwj/AO+aPYvuH1hdjmt3vRuFdN9mt/8AnhH/AN8igW9uP+WEf/fIp+xfcPrC7HM7qC1dN9nt/wDnhH/3yKUQQDpDH/3yKPYi+sLscxuoBycDJrqBFEOkaD/gIp2AOgFHsvMPrC7HMLFM/wB2KQ/RTUq2N63SBgPc4ro6Kaoon6w+iMFdKuz1CL9WqRdIn/iljH0zW1RT9lEn28zIGjN3nH4LSjRv+nj/AMcrWop+ziHtp9zKGjr3uCfotSJpFuOryN+IrQzRQqcSXVn3KiabZr/yy3H3JqVbS2X7sEf/AHyKsrHI33Y3P0FSrZ3jfdtJz/2zNaxoSe0fwM3V7yKghiHSJB/wEU7y0/uL+VXBpuoHpaS/9804aVqJ/wCXST8q1WFqv7D+4j20OsikAB2FLV3+ydS/59HoGkakT/x6v+OKf1Sv/I/uF7an/MilRWiuh6k3/LDH1YVIvh7UD1Ea/VqtYDEy2g/uE8RSX2jJJpK3U8N3R5aaIfnUq+GT/HdgfRP/AK9bRynFy+wQ8ZRXU52iunTw1AMbriQ/QAVMnh2xH3jK3/Aq2jkeKe6X3kPH0kclRXZJoOmjrCzfVz/jUg0bTAP+PVf++j/jWq4fxD6r8SXmFPsziaK7n+ydN/59U/Wl/srTv+fSP8qv/V6t/MvxJ/tKHY4Wiu7GmaeOlpF+VKNOsR0tYf8AvmqXDtX+dC/tGPY4TFJXfiysx0tYP++BT1t7cdIYx9FFUuHZ9Z/gJ5iv5Tz4AnoKcIpD0Rj+FegiOMdFUfhTgFHYVa4c7z/An+0n/KefC3nPSGQ/8BNOFndnpbTf98GvQML7UmF9qtcOw/nYv7Rl2OCFhfHpaT/98Gg2F6Bk2k//AH7Nd6SPWjIxjNV/q7T/AJ2L+0Zdkefta3KjLW8o+qGo2R1+8pH1FeiYBHakKIeqiolw5HpP8BrMX1ied4or0CS2tn+/BE31UGoX0zT362sX4DFYy4dqdJo0WYx6xOEort20bTT1tl/An/GopNC0xukJX6Of8axlw/iFtJFLMafZnlCRvI+2NSzHsBmtSz0gnD3Jx/sA/wAzV6CWzjYQ2y73PAWJSxP5Vvado1zOBJdKbdTztJBb/wCtXl4TL51pWir/AJHfXxagtdDKhjSJQkSBQOgFaFrpV5cYIj8tf7z8fpXQ29pYWEZciNMdXkIz+ZrF1nx14f07Ki5a5kX+CFc/r0r6GjlFOP8AGl8keRWzDlV1ou7NCz0K3QBpnMrenQVoFrWzhLMYoI1HJJCgV5XrPxL1S4YpptvFZof4m+d/8B+VcdqOp6lqcu6+vLi5bsHckD6DtXt0KFKkv3cbHzuKzqPT3n+B7Jqvj3w7YBlF39qkH8MA3D8+n61y1/8AEu6nyNOsPLH95zuI/oK4COyuX6Qt+PH86sw6bcg53xr9ecV0K71seJiM2qzVlK3ob82taxqB3Xl04U/wBzg/lgVWYqMlmH4ms2SDYMTagw9hx+maoXCxB8RSu47lhir5rHjyvWd5SNxrm3XrNH+Bphv7Uf8ALUH6A1gMyD7zAUwzxjpk1UYVZ/DEykqFP4pm8dStR3c/8Bo/tK2/2/8AvmudNwf4Vx9TTGlkP8WPpXVDBV5b2RyTxeFjtdnVRXdvKcJIM+h4olvLWL788YPpmuSOSckkn1puK64ZevtM4qmObfuKx0z6xZr0ct+FV5Ndiz8kbVghSeAM1PHZzyf8s8D3OK3jg6S6HLPFT6ysaEmuSHpGfzxULaxO38B/FqjGnBF3SzqtIlpbM2FndvcLx+dbKlCOyOd1oy3bY7+1JCeYlP41KmpRFMsjBvQc1G9pZx/6yZvwNNK6evQyNVpW2MbU5dGSNqa/wwk/VsVG2pTfwog/Oo2a0A+SF2Pu2KgJBPAwPSmVGlD+Una+uW/jA+gqJppm6yv+dNopXNFGK2QhyepoxS0UXKExRiloouAmKMUtFFwEAp6Syp92Rh+NNoouJpMmW8uh/wAtT+IFL9uuh/GP++RUFFAuSPYnN7dH/loP++RTWurlhzKR9KioouHJHsIxZjlmJ+ppUYqcgKfqM0UlGhRIZmJ5WPH+4KtW99Ei7TDtH+zVKkouRKEZbmvHcW8mNspB9CSKnUAdCT+NYJFSRTzRH5HOPTPFMxlh+zNuiqMGoK2BKu0+o6VdRg6hlIIPcUHPKEovUcrMp+ViPoalW6kU/NhqhorKdKE/iRpTxFWn8MmXUu4z94FalWWNvuuD+NZppCD9a5Z4CD2djupZtVXxK5rUVlBmHRiPxpfNl/56N+dYf2fLozqWbw6xNSiszzZf+ejfnSebL/z0b86P7Pl3Q/7Xp/ys1KKy/Nl/56P/AN9GlEsv/PRvzpf2fLuH9rw/lZp0VmieUf8ALQ08XUo67T+FRLAVFsy45rRe6aL9FUxeHug/A08Xad1YVk8JVXQ6I5hQf2ixijFRC5hP8RH4U4TRHpIv51lKjOO6N44mnLaX4j+lJRuVhwwP40VDTW5oprowNKCQQQeRSUUirs6Lw34rvNLKwT7rm2HRS3zL9D/Su603xRo98F2XaxOf4JTtP+FeR0Umk9z1sJnGIw65d15nuiyI+NpBB6EGkkhilG2RFcehXNeK2uoX1rj7NeTw+ySED8q17TxhrlvgG4ScDtIgP6jmk4J7nsUuIaL+KLR6RJpGnyfet1H+7kfyqE6Dp3aNx9HNclB8QLof66wif/dcj/GrEfxBj/5aaa4/3ZQf6VzywVCW8EejDPsP0qW+86CTw5ZkfJJMv1OarSeGsDMd3+DJ/wDXqlD480xj+8t7mP8AAH+taFr4u0GbAN75ZPaRGH64xWE8qws/sHXSzqnL4aqKMmgXq/dMTj2OKrSaVqCdbVz9CDXVW2q6Zc48i+t3z2DjNWwyEcMp+hrjnkWHltdHfDMpPZpnBva3Kfet5V+qGoirDqpH4V6Fx7UjLG3DKp+ormlw9HpP8DdZi+sTzyiu9ks7ST71tC31QVXfR9PcnNsg+nFc8uH6q2kmaLMI9UcVRXXtoGnt0jdfo9Qt4btiPlmlH1wawlkeKW1n8y1jqTOXzSZroZPDTZ/d3Q/FP/r1Xl8O3q/caJ/ocVzyyrFR3gaRxdJ9TGorQk0XUkP/AB7Ej2YH+tQtp18vW1l/75rmlha8d4P7jVVYP7SKtFWRp98elrL/AN81NHo+ouf+PZh/vECiOFrS2g/uB1YLdooUVtQ+HLtseZLFGPzNWk8MoB89yx+iiuqGU4uf2TKWLpLqc3RXUr4btcfNNMT7Ef4U7/hG7L/npP8A99D/AArZZHivL7yPr1I5Siur/wCEcsf+ek//AH0P8KUeHbH+/Mf+BD/Cn/YeK8vvD6/S8zk6K6z/AIR2x/vTf99D/Cnf8I9p+Puy/wDfVP8AsLE+Qvr9PzORorr/AOwNP7xv/wB9mnf2DpvXyW/77NP+wcT5B9fp+Zx1FdkND07P/Huf++zTv7F04H/j2/8AHjVLIMR3RP1+n2ZxdFdp/Yunf8+y/maUaNp3/Pqv5mn/AGBX/mQf2hDscVRXbDR9O/59U/M0q6Vp69LSP8RmmuH63WSF/aEOxxABJwOaXY390/lXex29sgxHDEuPRRU2F9B+Vax4dfWf4EvMf7p52QR1BFABPSvQmSJusaH6ikEUQP8Aq4x/wEUPh1/z/gJZj/dOAWN2OFRj9BUgtbo9LaY/8ANd6Ng4AH5UvFWuHo9Z/gJ5i+kTgfsl3/z6T/8Afs0fY7v/AJ9bj/v2a7/j0/Sjj0qv9XofzsX9oy7I4FbG9Y4FrNn3QirMWi6jJj9yEB7swrtDio5Z4IwWklRAOpZsYq4cP0V8UmyZZjPyRz9t4aJGZ7nHsi/1q7H4esF+95j/AFfH8qj1DxRolnkNepI392Ibj+nFY83xAsVyIrK4k9yQtehSyrCU18C+Z5lfOacX79Q6OPRdOXkW4P1JNWo7K1iP7uCJfoorhZviDMf9TpqL/vS5/oKo3PjrWZMiJbeEeyZP6mumOGow+GK+44Kmf4dbybPTQijhcD6UvAryGbxTr0p51CRf90AVVk1rWH+9ql5+EzD+VbWijjlxDR6RZ7QWApNw9a8SfUNQfO+/umz1zKx/rUbXV033rqc/WQ0XRn/rFDpBnuO5fWgug6sPzrw37Rcf8/Ev/fZo8+c9Z5f++zRcX+sUf5PxPcDcQqfmlQfVqgm1PTov9bfWyf70oFeJszN952P1NNxQZy4ifSH4nskviPRIh82pW3/AXz/KqsvjHQI+t7u/3Y2P9K8looMZcQ1ntFHqEvjrRFPyfaZP92P/ABNVZfiBp4P7uzuH+pArzniloMXn2Ke1l8jvZPiJGP8AV6Wx/wB6bH9DUD/EKfPyaWi/WYn+lcRRRqYvOcW/t/kdm3xAviOLCAH/AHjTf+E/1LtZW35n/GuOop6k/wBsYr+c7A+PtT/59LX9f8aY3j3Vc8W9qPwP+NclkUcUWZDzbE/8/DqG8da0furar/2zP+NRSeNtebpLCn0iH9a5ujNK0iXmeIf/AC8f3m83i/xAf+X7H0iT/CoX8Ua8/XUZR9AB/SsejI9RRaRDx9Z71H95qN4h1tuup3H/AH1Uba1q7ddSuv8Av6azHkjT7zqv1NQvf2qH/XAn25o5ZdifrVV/bf3modU1MnJ1C7P/AG2b/Gj+09SHTUbsf9tm/wAaxH1SAZ2jP1IFQvqjE4Uxr+tPkm+gvbT/AJ/xOlj1rV4/u6ldfjKT/Opk8T63Fz/akv8AwIg/zrjnvXfrP+RxURlQ9XB+pp+zqdmaxxE1/wAvfxO7Xx3q8RO7UI3+sSn+Qp6/EjVU7QP/ANssZ/WuA8yP++KUOnTePzo9nUXQ6IY+a2qv7zvz8TdV6fZrc/8AAT/jTl+J+ojG7T7dvxIrz8Mn95fzpQQehH51PLPsbLMq3Soe3XGseFfDURjEsKy9CkXzyH6//XrltZ+Jtw+6PSrJYR2km5b8hx/OvPKKxVOMY8sVZeR31s5xFR3Wn4l/Vda1XU5C17eyy5/hLYA/CoYNOnkwzgID3NQR7A+ZAxX0FW5tTlYYjVYx+Zq4U4LoeTiK9ao9Xf1LCafbQrumbd67jgUrXtpB8sK59lGBWNcXW4lpJGdvrmqz3Dn7oC12UsNVqfDGy8zzKuIo0/jld9kbE+qy4+VVQepOTVCfUZHzmR29ugqiSSckkmivQp4CK1m7nnVMye1ONiRp5D0wKYzu3Vj+dJRXXCjTh8MUcU8TVn8UmFFFFamIUUUUAFFFFADllkUYV2UexxQZZT1kf/vqm0UCshCSTkkmjApaKdxiUtFFIAooooAKKKKACiiigAooooAKKKKACiiigAooooAKKKKACiiigAooooAKKKKAEIFLHI8Zyjsp9qKKdwLcV/Ipw6hh69DVuK9t3/i2n0asmkxQZSowfkbwIIyCCKWsJGdDlWI+hqZL25XgsGHuKZjLDPozXpMVnrqR/ji/I1MmoQHghlPuKDN0ZroWsGkpiXMD9JV/E4qTIIyCCPalYhprcSilxRSC4lFFFABRRRQAUUUUAFODMOhI/Gm0UrIak11HiWQdJG/OnC4lH8f6VFRUOlB7o0VeotpMnF1KPT8qcLt/7q1WoqHhqT+yaLGV1tItC8PdB+dO+1juh/OqdFQ8HRfQ1WY4hfaLy3UZ6hhThcQn+PH1FZ9FQ8BTexrHNKy3szTEkZ6Ov504YIyDWVSgkHIJrKWXLpI2jm7+1E1KmiubmL/VXEseOm1yKxxLIOjn86eLiUfxZ+orJ5fNbM6YZzFdGjoItc1mLlNTuvoZCf51ai8Wa/H/AMvxf/eRT/SuXF1J3Cmni79U/Wsngqq6HbTz621Ro7GDxzrUeN62snu0Z/oRV2L4g3Yx52nwt67XI/xrgxdx91YU4XMR7kfhWTw1Vbo7qfENRbVfvPRYfiFbk/vtOlUf7Lg/4Vch8e6Q3DxXMf1QH+RrzETRH+NfxOKUFT0YfnWcqclujtp8Q1+kk/uPWoPF+gzY/wBN8sns6MP6VoW+s6XPjytQtn+kgrxY0VJ2Q4iq/aime6q6ONwYEH0NOGPWvCo5JIzmORkPqpxVkajfBQq3dwvHUSHmlY6o8Rx6w/E9swPWmsyqMlhj3NeLPqF+V2i+umz1HmGq0s80o/eyyP8A7zE0JIJcRw6Q/E9jutb0q2B8+/t1I7bwT+QrMm8baFGcLNJJ/uxH+teWUUHLU4grP4YpHpT+PtJX7sF030UD+tM/4WBpv/Pnd/kv+NecUUGDz3FeX3Ho5+IGm9rO7/Jf8aT/AIWBp/8Az5XX/jv+Nec059pOVGPagl55i+6+49DPxBsMfLY3JPuV/wAaafiFaY+XT5ifdgK88pQCegoD+28X3X3Hfn4hQc402Qn/AK6j/Cmn4hJ20tv+/v8A9auDAQY3bhxz9aaeDign+28Y/tfgd23xCP8ADpv5y/8A1qa3xDl/h01fxk/+tXDUq43fMDj2oE85xf8AP+B23/Cwp/8AoHR/99n/AApv/Cwrv/oHw/8AfZrimKjoeKaXQdWH51Si3siP7bxS+3+R2/8AwsK7/wCgfD/32aZJ8QNQKnZZW6ntkk1xRljH/LRfzpPOi/viq9nPsZyz2u/+Xv5HUT+Ntcl+68EX+5H/AIk1VbxVr7Nn+0XHsFX/AArAM8X98flR58X98Uexqfyswlm1SW9X8To08X68gx9rU/WMU5vGWvn/AJekH0jFc350X/PRaXzI8ZDqR9aXs59hrNav/P38Tcl8U69IedQkX/dUD+lVn1zWWOTql3+EpFZnmxf89F/OkM8Q/jFHs59iJZjN71fxNP8AtrWP+gpef9/m/wAaP7a1j/oKXn/f5v8AGso3MQ7k/hTDdp2VjWkcPVe0TGWaqO9X8Wa76xqzqVbU7tgeoMzVTkkkkOZJGc+rHNUjeHsg/E1GbmU9MD8K0WBqvfQ5amc03vJsvYpazTNKf4zTSzHqxrWOXS6s5JZvD7MTSLqOrAfjTfNj/vr+dZ1FarLo9zF5xPpE0DPEP41o+0Q/3/0NZ5461G00S/ekUfjVf2fDuyf7WqvZL8TT+0Rc/N+lH2mH1P5VkNeQA/eJ+gphv4PRz+FP+z6fmH9pYh7RNn7VF7/lTTdp2VqxzqEfaNzTf7QHaI/nVLL6SE8din0Ng3non5mmm7f+4tZBvz2i/wDHqadQk7RrWiwVJfZM3icU/tGwbqX0UfhSG5m/vD8qxzfzn+FPyppvbg9wPwq1haf8pDqYl/bNk3Ep/i/Sk8+X++axTdXB/wCWn5AU0zznrK/51X1eH8qF+/6z/E2zLKf+WjfnSGRsZLn8TWGXkPWRj+NNOT1OapUorZC5JveRtNOg+9KB/wACpjXUI6zD881kYoxVckQ9l3kzTN7CP4ifwphv4h0Rz+lZ+Paimoofs0XW1A/wxj8TUbX0x6BB+FVqWjliPkRK11cH+PH0FRmSVh80jfnSUUWiWtBMc5zRilooC7EoxS0UAJiilop3AKKKKQBSUtFKwGjTWljXqwqi0jt1Y/nTc15UMr/nZ7dTN/5Ilp7n+4v51A8jv1bj0pFYbdu0detI2ASBzXfSwtOnsjzauNrVdJMSlpKUAk4IxW5zXCihuGI6470madgFopM1Lb29xcNthhd/oOKWw0m9iOitWDQ7ggNPNFCvuc1b/snTYMG4uySegyFqXJGioyZz9FdCToMDbSilvQ7jT11LR4vuxoD7Rc0OT7FKiuskc4FZuik/QU4QzHpE5/4Ca6Q67p4+7HIfcIKP+Egs+gjl/ID+tLmfYapU+szmzBMBkwyD/gJo8qX/AJ5v/wB8mum/t6zChjHLyeOB/jRJ4hsi2dkv4L/9ejmfYPZ0v5zmRFKTgRv/AN8mpEs7p/u20x+iGugPiGzHPly/kP8AGoz4itx923kI9yBReXYPZUlvIyU0rUG/5dmH1IFTJoV+3VUX6t/hV6XxDjGy1ADdMydvfion8QzgErDGD26nNHv9gSodxieHrk/emiH0yamXw5/eu/yT/wCvVY65fupKLCuB2FV31nUW/wCW+PooFFpj5qC6Gsvh63H3p5T+QqRdAsh1aU/jWF/aN46ndczFu2GwP0qJ7i5wCbmRs/7ZNHLLuHtqSduU6T+wbD0l/wC+qUaFYHokn/fRrmEknkYgSsTjPLGleeRcbZn5HPJo5Jdw9tT25Tpv7CsP7kn/AH0acNBsMAmNse7muXilkZ1DTOBnklqWS4nViouZGA/2zijkfcPb0725Tpv7E0//AJ5N/wB9mj+xNO/55v8A99muYEszKSZ3wP8AaOaaJJw6ku5545NHI+4e3p/ynU/2Jp3/ADzb/vs0n9hWB/hf/vquWeR9x+Zh+PenJK23HmOGzxhjijkfcPb0/wCQ6X/hH7Jj8pl/76pv/CN2rfdnkX3JFc4txcLnbNIPXDGnfa7xW/4+Z1P++aOWXcPa0n9k25PDaj7l2fxT/wCvUL+HZ/4J4z9QRWf/AGjeKi4upt3U5bINOTWNQXpck/VQf6Ucsu4uei90TvoV+vQRv/utj+dV5dLv4+ts5/3ef5VbGu3iYDPFJnqSvT8qmTxFIGxJbK3PUNin7yD9xLZmM0Eqth4pF9QVNRkYNdRDr9oQDJHIufbNO8zQr05cw5Pr8h/pS5n1QvYxfwyOUpa6SfQLWTLW07oD0B+YVmXei30ALLGJV9UOT+VNSTFKjKPQz1XPcD60hHvmnOSF2MhVwec0zNVYw16jsHHPFJTyGMYOflBx9DTcDaDuGc9KdguCqW4HJPagIdpO4cep5NNDEdDUjSbgBgKO4FGoO5HRTnwDwc/himjJ6CjULhT1MsfzoWXnGRQhUBi27kcYpqyMpGD055pg3fQtwXsygmRd6jqehFXIbqGXhXAPoeKyRkqWxnkZprNuJIAAJ6Y6UGUqMZG/gUhHpWLHcTwkBXOPQnIq1FqWOJY/xU0jGVCS2L9FRRXlswzv5xxnjFSrJE4+V0J9d1FjFprdBRS0p2nAUH8fWlYTdhtFKQQcEdOtKMAjkH1GKLBdDaKXqfSlG0ZyMjt707BcbS4Pfig8GlDHGPWlYLiEYxnvSUpz3pDxRYLi0lP2jaGPSmhSexoBMSilRcnGaUsofoGUdqAuIccYP6dKKVScjA/MUhwBjBzmgL2EoozThjvn2wKLDuNp2SVwRkAflQMbTkkHtim59KLCFUAnk496MHPHJNJyBkinO+Sccc9B0pWHd9BVyCfmIxQJZB0dh+NNBwmd3OelG4EEkdBgVLpxe6KjVnHZkolmxu3Z7dBTlupgOq89eKhVsArk4J5ppPPB4qHh6T+yaxxVdfaZbF4fLI8tdxNC3h24Ma/XNU+aUcnFQ8JSf2TRY7EL7Rbe7XOVjwPTdSpdrn5ozj2NVcqRjpj260LwN3HHY96n6lRfQpZliLfEWVudxwsZP40G82sf3X0yarZYLuUkDpmmZp/UqK6B/aOJf2iybt+MIKDeSbQNqflUDZIzwO1AHy5J79Kf1WktokPHYh/aJftUv+z+VIbqXnkD8KjOwKMcnvmkbHbpT+rUv5RfXK7+0yZbmXu304FNNxN/f/ICoqXIOBgDFV7Cn/KS8VW6yf3j/OlP/LQ/nTC7nqzfnSsBvwuMfXikOMnPP0qlTitkZ+2nLdsU/MccdKbSZxSNMmMF0X8RVWQtWO7Z5oANMW5g6POoXrjNMe8hRmHnA56kAmnYOWT6E1FVvt0BOAWJ9hSC8Q52xuxHUAUD5Jdi4pOCAM0L1Izj1zVAX4OWWJiB156Uw6kxz+6/Ns0WH7KXY0O9FZpv5eyKKYb24PRlH4U7FqhI1aBgdSB9TWM1xO3WQ/hTfmyC2W78ntRYf1d9WaxuIR/y0U/Tmo5tQg3ZAY8dAKzvMA+6uMrg85zQFUoDu+bPQjinYpUI9S42oDGViJ/Gmfb5D0RQPzqupMm1fl646UOAmUIyQeuaLItU4roWGu5i+FZcE4Bx0qOW4uCxUy9P7uBURYbQMDPqKUqhj3KxznpjtRYpRiug1mdj8zMfqaTFHbNPhTzCRnHHFBV7DAB6UUrYB4OaDgKDnk9sdKY7iY9RRUjM3lqG6Y+X2qPNLUSYUtJmjNGoxaKAMqTnH9aTNGoBRRmjNIBaSjNGaYC0UmaM0gFopM0ZosAtFJmjNFgFopKXB7jH1osAUUHjuDSZosAtFJmjNFgFopM0ZosAtFJmjtnHFFgFopM0ZosADBOMgU47Ag7v3B6Co4wyjIy31qQbWfc5AHfAqmSxGUBQ2Rz270080vAJA5GeM01e27gZ5NLUaYtOViOM8D1pAY9rZJyT8n50wvk/SgNyxHH5km2MZAHJbj/9VWDFarmRy0gzjbHwP++j/hVKMl9yBiFXkj6CjcNoG39aGgvbYuC7jjwILGAcdXy5/WnNqN9KDsk2qBkhAABVJ2HlBVyu4YJz1pfNyAqjC9xnrS5UPnn0FeeZyS0rsT3LEmkjcK25gW/xpDtKkg4J7AcVGx2gnHApiu5E4kBYmRd2T1zzTGUgBsEA9KiI3YJzkHNSEHyjIQSBxxTC1hrEDkmpI9nO8E8cY7GmEowAw2Mc5HenDYHJ5ZQcUrA2IQQcZ6UrLhVOQc+hqNmzkgg81JFsJG8sPcUxO6Q+FUZHyQDjjPamfdJOc+nvSM+VAAAwMUhc+WdyqMHr3pahZiscsSBgelOjZQRvBI/WoVYH+99SKXIzweR1oKcehKvQnPTkA96RFDNgtgUzcRzQWZgmSRj3pisyZSYmODnjqPpTd+IwoGD3PrUdFILEowzDaQuevNNblsE496ZnjFFGoJWJPkCDGd2aEdlJIx8w5JFRZxyTRzu68f1pgScFN24lvpRuJGMnp61GrHkcgZ9aM/NjmiwWJExyTnPY+9CHbkkAk8e4pqsVbIxn0NIWHXjn0paha4/f0+UcfrSMSxyTknrUeSQMHjPNOo1CwtPfbgFRjsRUYIH17U/zMsSMDPagTuNp8eOcjOR19KaSmzaAc+p9KTccbQevX3o1HuFFJSrsBLPngHGPWgZLDPPCcxSyR/7pxWnba7ewfLMqzDp8wwR+VZKNuU5fHHGaYxZmyWz65ocbjjUmtmdOupaVqCiO7gCOf4mGcfQimT+H4ZAXs7oeuG5H5iubqW2uZ7Z98MzofY9anla2NVVUvjVy3Npl/bOf3G8DjK/MPyqkVIJBBBHrxita18Rz8GaJZB6qcGtCPVdKuiPPRVPpKmf1ou1uV7KnL4Wcy5H8IwDTa6abRtOu0LW8hTPeNwRWfceH7iIZimSQehyDQpJkvDzS01MzhlHPzdAMU5cxgOpBB4OO3tS3NldW/wDroHUeuMj86gLE9zzVGMoNbj32kDaCOOabSiR1GB0IwfYU2gSVhwJAIBwD1pyEgE46/LzUdLDLtyynHUHNPUGtBSDn196VUZmCgck0hckBSPlFK0zFFXbgITjvmkGoP0A24I4J9aj/AIgM9ac0hdVyAMDHSkHqAM9c0wW2pOJGEQTe4IbjBpvn3CH/AFr/AImoSWaRmYjnmlJ3HP580C5UWjeThARLyeoxSC+uM/eH02iqe0l856DilKjO7Iz60B7OHYvyX0gPybSOMgimpqE+/wCZUIqqSqpgggnnOe1MGC4cHn60WJVOPYum/uM5ATGeOKBqFxjpH+R/xquHyMGNBxjimso8s4cb/TtQHs4di22pSYUCIEk9s1J9ulQguig9xz0rNG4HIJx7U6RixHUkDH1oE6MH0L76iwYhEUr296T+0pMYMYPpzWeSeMdO/NBYDdknjrQNUYdjQ/tJjgGNV9T1qOTUZsts8o4PXBqp2oxz0FIFSguhbF/cZzhR+FC6jcbzlEPHX3qqKaoGOCTTQ/Zw7F9NQkaMsWjLZ6Yo+3zBA37sn0ANUMgHr1NKpYE88dqLC9lHsXv7RbaMqhbuOeKcdS5yIxj61nYHOKRfkQ5wB7UWD2MOxpjU+ADF0/2qcNRj7xt+lZeTwQODQQSQckY7UrC9hA1RqEH91x+FKL63/vMPqKygMimnJJAyCDRYPYQNg31uP4z/AN8mj7bb4zvP/fJrHB+YjnikVSBjk5PU07C+rxNg39sMfMeeOlIdQgH978qyUX5QNuMdKVlBGDSsP2EEaJ1FN2AjY/Cg6j6Rfm1Z3IbgcHqaAw3be+M0WH7CHYvNqMuDhBjrikXUZTz5a/QiqdJg7uvbpQP2UOxoDUXxzEPwNKdRAH+qP/fVZ/4/rSNg/Ke4/OixPsYdjQOpekX/AI9SHUX7RD8TVEAAYFLRYfsodizJf3BHyBB+FM+2XLE/MR+AquF53E9qGBJBBwO/vT0KUIdif7TcH/lq/wCBppeQ/ekc/U1DuG/bkU4kAZJxQPlS6D1wzDe5AzyetLuUP0DL2HrUOMHIPGeQaU4LDPUc0Dsrjzg8+tAA6EcGkFNJYkYwPWgCZdiyZxuUdAeppoZhkA8Goww3EZ5paQrDst07UU0kAZJwB1o60DJNny7s8d6Nh27ugzQu1UV2fJzgjv8AWmMcu3YA8EntTESiPG7OAQM8mmlieM8YxSBlKn5eexzUbgEYJ4+tCBLuPpyYGSwJHTio+cUUhseDhgQec0Ekkknk9ajJyp2/rSnOOOtMB1OLHaFyMDpxUY6c0tLUCUvuBDd++KQlB93JyO46VHR3xmjUVh6OVJwevWgsCuNoJz1pn0NHQZ5o1CyHqGcnHbmm4OcUic4xyDUh2O37ssSfX1o1FcbtPcUroVVWyPm6UI4ACuPlByQOtI+GyQMYo1DW4rNlVAHI6n1ptCbdw3ZxnmnbVLAK350ajuhtFOG0I2Rk9BzTUXOcnHFGoXHFCE3cY+tNpyY3euB64ph64oBXFoqQqX52hO3oKXNuqgKS7fxelA9SIAk4HNO2+pApZXAAw2AeuB0pqLkEkjj+VGorqwvygcDJ96AT7D8KYT+VDK23IO33xnNAxxJPUmkoYBeMg+4ptAhwop2I9g5bdnn0qMkhsEUAOopw4XgHd/SmUagmLRSoV2spTLDnOelO8s7ufl4yM0ahew1wVQMwIBGRS5UoCM5NNcsQowSB3pUYqcgA85wRQLoJRT9pkdmACjqe1IAMbuozznvQHMNfavyxMdp7VGzgNjB570MMjGSM0McZOM015lIcOnJyadvHl7ML1zmoQ29MgkZ/OnjNLYGh7MjRYP388HtiogT8p29TyPSnUUXEtBcj8aCQByaQnHJpu3OdxJGc/ShajFVRz6ZzS55xiim8KSc4z2Jp7huSpIBnK7hg8Zpitkcgj2NJuG0t1FAzknt6YpWCw7IpAWBbJ+XORSHpjODSj8zQA5X2qVAXB/SkyKSkAIJJbI9CKNxCkKRjAx6UKRkgDGPaj6UnC9+/egaFx82c546UA8c4zSKMADJJ6ZNLQ2AcdM0AKMkAZPWikzk+wphqOzRkUwZySenpUv2iRMbUjx0+4D/OlYaQyNvMICKScZwBzVmGyvJWwlrMffYcfnQt9dqMJOyj0XAqOS8vCmDdSY/3jQUuQuRaNqDjmEJ7M4qUaFeEffgH/A//AK1ZEjSMuC55PcmglgVwcDpU2ZV4djXk0K9XAWW2JP8Atn/Cj+wb3gb4Dx2f/wCtWSC3OT3pCMnJJ496dmLmp9jVbQr4DJSP/vuo/wCxdQUY8gNj/bFUlmlX7srj6MalW9vF6XU3/fZo1Hen2Htpd8hJ+ySZ7kDOfyqB4LiJT5sLrjvsIqddV1CIlvtkmP8AaIOPzqxFr1+Oskcg/wBpB/Sj3g/d92Zi/dyBikUsSMjHFbX9uLIMXFjDJ7jt+eaUXOhzj97avC3qvT9P8KLvsLki9pGJyMAHPrQMhumB29a2zp2mT/8AHtqSqT0V8f8A1qhk0C8iXMJjmU85Vuf1o50P2UjLXOSSeOwoXAYgde9TTWl1BuMtvKgHfacfnUJ5qrozaa3AthgAPx9KG4GaaU+XGSKGBIwCR6mgQqn5Bt49BQAeM9QOtLRRcGGTz0HpQMcZ60hGQcHB9aFyBgnPHXFIBx6HBxSLnHPX2oNNIIAA557mn0AeJCjAqzKfVTzWhb6zfRAAzCQejjP/ANes6ik0iozlHZnR23iOJuLiBl90OasMdH1DG3yix/4C3/165TtSAAZx1JqeRdDVYh7SVzorzw6rDNvMRj+F/wDEVkXVhe2r4kt3K/31GRRaahe2zfup32/3WOR+RrWtPEQ4W6gx/tJ/hS95eZSdGXkc8WO8LntnFB65ycdxXWeXo+p/MvlmQ+h2tVG78OMG32s+T/dfj9aamhOhLeOpghtw5UqfelBwvJzxzU95Y3ls372FlHrjI/OoKq9zBpoAT/Fj8KXIprY28jI70KcgEUCYpxnOTjHSkXbglRjPtS0UXC4kY2jBbPNKdpBB78UUUAGSGAA4Pf0pcikozQFwLKOp9qXIweelMUh/wP60oAHI79aYDgQR1oyPWkopABJ7Edf0oUKO9FFFwuGQCBxzS5HfimjO45x7UtNoGDthSQM47ClyMelNAAGAKWkAuQaQng7cE0Ud80ALn14oJGOtJRQADaoPPHWlUgqDkUlJzntinuABgoA24z2pRjcW9sUUUrhcXIoyPWkooAXIpM8kHiikHAx1oAdketIM7vb6UUhGRg0IBejZzig535J4x0poUDBPbpTqYDWBzkMfwFKy5ZT0wetLQKLhcN2MA9T0pCTk5IGDxS0mBnNJWBDsijI9aSigA4zkUgGSdxBFLRRcLgcHg4x3o+XII7UUGgQPyeDjBpOVwFUY780AAEkDrS0eQ7i55600PnGAeT+lGDuznjGMUtGgCZAJ4ySeaUNzjHT3opCDkYbA9MUwQpwTzjikGcnJBHalopXC4KccYwB0oODwcEelHTrSKwIGPrQApYDAx7GlB4po3bj6dqBkZyc/0oCw7IoyKQEFcjmkGepx+FMLAjZyM5waFJ/iGDnpSjikz82Pb0paAKTlsZxjnFIP9oDjpS8ZoouApYD8aMjJHcU3cCcd8Zpcc570WQCZbcMbcU4HHpSU0A7NpPPcimG48kZpyvhWAYj1xTFU4AA+lPEBDchVJ55OM/nS0DluNyKV5Oe57CnJFGCfMnAGeAoJNOZrOMA/vXJOOgH+NA+UiVskqc5I4Aqw0DhFL4Q993HFRmYjPlqsY9uTULFyxYsST60Csrk7eUgOWMjDsBgfnStdIcBY0QY6AZJFVdrHPzYHb2p9FkNsma5LKQuVQgcHtUcnADAgljyB6+tMKg9RS54xxQTsOR2QMFGdw6Gnbk2sOmB8o9T6U1Dt+YHBHSmt82e30oFuO+6gZjnJxgUrH5AQw69M9PWm5Ux4IIYd/amoevXihjtckwhBddwYnkHpQNm3JOWPYUjPujWMgYHtSO4KAMeF54FC1Ekxyldw2sCAe4odgTkAAk846YqMjJznFAGCT609BkrzbyF2AY6MB1pEl3SK6gACo+dw4GO9GTuxjj1oCxNuKM+WGWHJHfNRM/zAYJ45PpSONwIJOT3pADzk5oBJIlG0qVwST05pCrqAzDCk/L6mmLkDDHJpaVgFWT5sSuf9ke3pTmdPM+QkDtnrUZAyDjkdKCOdw69Kb1HZBmjNNzRmgLDhgDAFGabmjNILDs0ZpuaM0wsKwDdR1pc03NGaQWHZpGwwwRkUmaM0wsLx6ClzTc0ZoCwpwRgjNLmm5ozQFh2aaeW7jHejNG6gLWHZpDgjBGRSZozQFh2aM03NGaAsOzSHk+3cUmaM0BYVeFAGePWlzTc0ZpBYdmjNNzRmmFh2fajNNzRmkFh2aM03NGaYWHZozTc0ZoCw7PtRn2puaM0gsOzRmm5ozTCw7NSRTzRHMcrof9liKhzRmlYLGlFrOoR8edvHo4Bqb+2IZeLrToZD/eHBrHzRmlyotVJrqa+7Q5/4Z7Y+3I/rR/ZltL/x66lC5PRZPlNZGaM0WfRj5090aU2kX8fPkh19UbNU5YpojiSJ0P8AtDFJDdTwn91NIn+6xFXItbvlGHkWVfR1zRqFqb8ihmm4G7ODnsa1RqdlL/x9aZFnu0fy0uzRJ/uzz2x9GGRRcfs09mZeaM1qf2OJcm1voJvbOD+VVptK1CLJa3Zh6rg/yo5kS6Ul0KYGCTyc+ppc0OroxV0ZSOxGKbmqIcWOzRmm7qM0Byjs0ZpuaM0BYdkjpxV601a9tsASl1/uvz/9es/NGaTSY03HY6W18RQthbqAp6svI/KrPl6NqHK+SWP907W/KuRzRmocOxuq8tpK50s/h2M8wXDKfRgDWfc6LfxZKoso9VaqUGoXkGPKuJAB2LZH5Vfg8Q3if61I5R64waLSQN0pbqxnTQzQnEsLof8AaUio810kXiG0kG2eF09ejCpM6Fdf8+4J/wCAH+lPma3Qewi/hkcvmjNdM+hWEo3QySKO21gRVaTw4c/u7ofRl/8Ar0KaYnhp9DCzRmtd/D14Puywn8T/AIVA+h6kvSNG+jj+tPmTIdCfYz80Zq2+l6iv3rV/wwf5VC1pdr962lH/AAA000T7OXYizRmlaOVfvRsv1Uim8+h/KmLlYuaM03PrRmgXKOzRmm5ozSDlHZozTd1GaYWHZozTd1G6gLDs0ZpuaM0Byjs0ZpuaM0BYdmjNNzRmgLDs0ZpuaM0BYdmjNNzRmgLDs0ZpuaM0BYdmjNNzRmgLDs0ZpuaM0BYdmjNNzRmgLDs0ZpAGPRSfoKlS3uH+5C5HqBSuPlZHmjNTCzuO6qv+84FPWxkP/LRfoqlv5Ci6H7N9itmjNXFsD3c59hj+dP8AsKKMt5v47R/U0XQezZQzRmrpgtBwS3/fVM22eOjZ/wCugouHs2Vc0Zqcm0BwQ/8A31mlUWR6uR+J/wAKLhyFfNGasf6EOjN+Z/wo32X91z/wL/7Gi4chXzRmrHmWQ6Rufxz/AEpPtFuPu26598j+Ro1DkXcr87i3J9qcA3901J9pTPEQ/IH+dH2yQfcCp9M//qoCy7gsE7DIicj1waDbyDrtH1OKY9zK3Vh9Qoz+dN81/wC+350ahaJIYHxjKH6NQLeYDiN2/A/zqPzX/vt+dIZGPVifrzRqGhJ5cn9w03a3cUnmv6/pR5z+v6UWYrIcsLjop5pTBOxGI3wD/d60zznzndz9KQyMR96nqOyJDC4PzDaf9oYpdnqy/mKhLZOSc0ZpCJgIQeZCf90f44pfMhAO2In3Y9f8/WoM0ZosA8zSZODgdOOP1pg6HOSfU0ZozTDUAXxztzQMlRu60Zo3UCsOzRmm7qM0BYdmjNNzRmgLDs0ZpuaM0BYdmjNNzRmgLDs01snGDijNGaAsOzRn2puaM0g5R2aM03NGaYWHZo/Cm5ozQFh2aM03NGaAsOzRmm5ozQFh2aM03NGaAsNopufejPvTLsOopufejPvQFh1FNz70Z96AsOopufejPvQFh1FNz70Z96AsOopufejPvQFh1FNz70Z96AsOopufejPvQFh1FNz70Z96AsOopufejPvQFh1FNz70Z96AsOopufejPvQFh1FNz70Z96AsOopufejPvQFh1FNz70Z96AsOopufejPvQFh1FNz70Z96AsOopufejPvQFh1FNz70Z96AsOopufejPvQFh1FNz70Z96AsOopufejPvQFh1FNz70Z96BWHc+pqzDfXkP8Aq7mRfbORVTPvRn3osik2tjWTXbraFnjhnX0dKd9u0mf/AI+NPMRPeJv6cVj596M+9Tyor2kjZ+yaROf3GoPEx/hlH9aa+h3RXdBJDOv+w1ZGfelSR0bcjsp9QcUcr7heL3RZnsruD/W28ij125H51Xq5BrGow/duWYDs3P8AOrH9sxzcXlhBL6lRg0arcOWD2djLorUI0K46NPasfXkf1oOjiUZsr63m9s4NO66h7N9NTLoq1Ppl/BkvbyEDuoyP0qmcg4OQRTViXFrdDqKbn3oz70EjqKbn3oz70DJI5JIzlJGU+xxVlNSv06Xcv4tn+dUs+9GfelZDTaNJda1Jf+Xjd9VFTJ4gvl+8sL/VT/Q1j596M+9HKilUmup0CeJJh9+1Q/RsVKniWPq9qw+j/wD1q5rPvRn3qeRFe2qdzqV8R2h+9BMPwH+NL/bemt95Jc+6/wD165UZPeniOQybAMn2NHs0H1iXU6b+1dIPUN/3waUajo/94j/gH/1q5cLlsBhx1zTc+9Hs0NYh9kdT9t0VhzJ17eV/9ak87Q2489P+/Q/+Jrl8+9Kis5wvpmjk8w9u+qOnA0RulxDn3RR/7LR9m0hjhbi1/ED+hFcvk+9ByD1o5PMPa+R050/Tm4WazP5//FUn9kWjfde3P0dh/WuZz70Z96OV9w9pH+U6Y6DGRlQv4Skf0NMOgDP3W/CYf/E1zgJBzk0+KWXcAspUe7Ucr7i54dYm4dBbH3JOnaRT/QUxtCk7JOfT7v8AjWSLq6U4W4lx04c1JHqF2uf9ImIIx988UWfcOan2L7aJMP4Zx6fIp/8AZqYdGmB/5bf9+f8A69VP7Sv1OFvJsDp81KNV1EDi7k/nTtLuF6fYsHSZgM5kH1hamnSphxvOfTyn/wAKbHqupEE/a2wo54FKdZ1LaMXbZ75Vf8KPeFencBpcv/PUD/tm/wD8TS/2XJ/z1X/v2/8A8TTP7a1P/n6P/fK/4Uf21qf/AD9H/vlf8KNR/ux39mSf89QfpG/+FC6ZITjef+/T/wCFMOs6ket03/fI/wAKT+19S/5+3/SizD92TDSpDn5nP0hb/CnjR5O/n/8Afk/1NVDqmoH/AJfJv++qYb+8PW6mP/AzRZivT7Ggujv/AM87g/go/m1OOlBPvoy+7SgfyFZLTzucNNIc+rGmurKxBOffsaLMOaK6GubW1j+9JaD/AHnLn8uKTzNPTpOh9kh/xzWPk+tGfejlDn8jX/tC1QfJ9of6kKP0xUUmoqfu2ysfWRt386zlIz8wJFLv+QqOATmnyonnkXDqNyfubE/3VxUb3l0/LTNj24qEbkCOOM5wTSIS42FlHPU8UWSJ55Me00zfelc/jUffrSHIGT+HvSDJ6U7CuOHUZ6U59u7K8A9B6U3DKA5zjtSO25s9PpQFtRaKcy+W4VwccFqWQlM4ONw6e1ArjKKblmPcmjn1oGOopufejPvQOw8AkZxx60nPpQ8m4jC7QBjilaQOpLZL+vYCgnUSilZl2bcAnOS1JkeX0wR39aACim5PrRk+tAx1FNz704BvLLAcetABRTcn1oz70DHUU3PvRn3oCw6im596M+9AWHUU3PvRn3oCw6im596M+9AWHUU3PvRn3oCw6im596M+9AWHUU3PvRn3oCw6im596M+9AWHUU3PvRn3oCw6im596M+9AWHUU3PvRn3oCw6im596M+9AWHUU3PvRn3oCw6im596M+9AWHUU3PvRn3oCw3NGabn3o7ZzxTsOw7NGaapUMCwLDuKeAGJKLwPQ9qLCbsJmjNKrKC2G2KR0601ivBGeRzmiwkxc0ZoRlGdy7sjj2pCMtgZPHpRYrqLmjNN5yOvNOKMBzwc4waLAGfpRmkKkHGMHvTSfeiwKzH5+lGfpQNpQkn5s8ACglBHjHzk5zmiwrhmgc0sZAR2KhsDuelLGY2D+YxBx2XrRYTdgKj5fmzkZOKQggc0kY3Nhep6CkdiWJOfrRYaFzRmm596M+9A7Ds0DJ6Cm596MkdPWiwDzwcd++aTNOZSymTduGeuaaykY9xmiwhcHGQOB1xQw24yQSR27UzPuaCc8knNFg1HcijP0p6KsnJwqr1yTzTf3aqwzls4GOlFhXEzRmguMBSOnpTVwTycD+VFhj8N1wcDrTn2hExncRzmot3BAJANGRRYLMdk0Zoj24Ziw4HAI60bxtK4HPfvQGvQcNuw8HdkU3P0pGfcxOe9CkYbJPT0osFrC5pTkHBGD70m1h8xGMDPNJI+5i2Tk9aLALmjNI2AByDn0oUFgTzgdTQAuaM008DJzipGCgKvllWxzzRYLjc0ZprZU4OQfejPvRYe47NGabn3oJxQA7NGabketGfegLDs0ZpoySAOSaM+9FgHZozTc+9GfegLDs0U3PvR+NAWHUZIOQabn3pVZQGyCSRgc9KLAXINSv4MeXcPgdjyP1q2NZEoxeWcM49QMEVkF8gAnOOlJn3pcqKjOS6mvt0a4PySTWrHswyP60HRZJObW5gnHs2DWQjlXyM8d6UOc5DHPtRyvuPmT3RamsL2HO+3fA9Bmq7BlOGBB96tW+p30ShVuJCmejcj8M1INZlIxPbwTDv8uM/lxS1BcrKGfpRmtL7XpE8e57NoyOCFbOf5U3ydJc/JdSRk9A6kf407i5PMo4+XcCMZ6HrQ+wYCk5xzmr66bA74j1CEg+pAP6mg6VcBshVkTttJ5/pRdC5JIzs0ZqzJp12jANCVz0ycUxraVQMwyZzyduRRoJpojLsVUHGB0oDkDGcCmyrKH/eoyEdsU0nHrTsK2g9iDjAAx79acGBXaVGc/e7iodw556dacHATjkN6iiwOI7pnPanMyhjsPHSosggZIXjBP8AWjcuTtIYA8HFFgsTxkbcj7+eP8KiYFWIYYI6imu+5ie55pzOjHI3AE87uTRYVrMU5HUUnNDlR8gOVz1xgmlZtygluBwFosO4nNKQcA4PPSnKFIYcKQuTnuajLHgFuB0osLVksbfNtwvzcZNNB2nIOCKbHtIYFgvcE/ypo5IGcZoC244nJJ45ozQUBbapBPrnApp4I5zQNEpLCIA/dOSOe9Mz9KaTnqaVSufm6ew5oC1hc0Z+lACbSSxz2Ap0ir8hXgsBxmgV0IcFRgnOeh6UqqPl3ttB79aYGKnrTjIGJLgsT3BxQDQpU43DJGeuKbzTQR06inkKX5BUe9FgBSufmpyuSyqxJA4wKYHURkDBz7dKZketFhpXH59KU4A5zu9KjRgTkg4B6VJMwMnAAA4H0osD3sJmjNIdoUc5OOR6Gm5+uPWiwbjySQMnjtzRmhymflyRimZ96LAkTAgrgvjHIpA21WUqOe5qPI9acQGYBNx6Dn1osDSQoYjoaTOetIw2sQTyPSkUgHJ5wenrQBJKAG4bcD3NNzTWIJJHTtRketAJaEqkp8wI9CAeaagLMAOp9aYCB0/lTi6h9yrjHTmiwmmOdSrEEAEdaGXaASfvcj6UKY8MxO456EUm35S24DHbPWiwXBxtbGQfpQis7YXGfrUe4AYLYyaXI9aLDs7Dzx0INBYkY7U1XwCMnB64pB0yTxRYLdx2fpT3ZDgKoUd++aQoFTOVJ70wtubkgZPpRYW499oOA2ffGKQHgg8e9I425AcMAaI13ZPZetFg0sSMoJHlEtkc8VGcg9qFICkhiG7ClXaY2BYBgc4x1osF7CZpee4oXaNxJBxjv1okl3uWI4J5WiwXHEoVXGQ3f0pmfpShwG3DaOOB1pCVAI28g/hRYL2DnGaUAngcmmBgCD+lO8zDb/4vXpRYeopVv7pHOM4pM/SkDnGNzcnPWh9oYgHI+lFg9RaM0u8uDvYcDuKZ070Ah2aM0hBA54NJketFhjs0ZpufejPvQFh2aM03PvRn3osA7NGabn3oz70WCw7NGabn3oz70AOzRmm596TPvRYLD80ZoQx7WDKSexzTWxnIJxRYXWw7NGabn3pAwIyDRYY/NGaQqdgfcCCcdeaTPvRYB2aM03PvRn3oCwp2YGWKnnP/AOqkDoVYbeexzUJdgwLDcP4ge9O3fMSDj8aqwcpIyMqhiDg8imgjvTVfzFy+Tjpk9KaGwPmwCaLDtpqSZozTM05mRYg24E56Y6CkA6NwCG4P4U52VdrA/eHIH8qjJXACrtAH50x2YDIGfamK12TqyDa2CWzkjNNklDyEkcnt7VFyyDnaT1oBOcY/GkPlS1LLeZsL7iVyATmot5YbWHT7uKjLAHHelRm2FRtznIbGTTsJRHggnBOKeQpfarZ/2ulRMOQVY4xSZO48UrDtfYk+UMcn5wMikDYORxTSc9SRTVJ53YphYkDehpyFeQ2fwqFcInUYFGSVyOeOxosDiTquYmY8bTwD3pACqHOGJHr0qLPrRuwcY4x1oFZjlDNhV6k45pSMgims4VQdvI5zSyCQojZynaiwDsqIQirhs9aavCgFifc03PQdDSK8inIIPPH0oHYmfaFUgnPOc0gKY+YnJ5FQlzvAGPens/7vAA3Z6/0peouXoOJyc460hYAEn+VN3dM8UuRQMUuAuc4+tSJtEZdsHnG2okK7xu5HcUjMScKcDv6mmJq4/NKuS+zOD7mmZ70u/plRgenWkFh3B6E57D1pgJBAJJP0oZixyxycYFJmnoNLQkTLNgDP0pM4/Co1ZQSQO/OKcZE8oFVYHk80WDqPZ2ONzEilO1h8iMOOeaiDZ7UobFILdiRSpBGG39B70wlwWUgrg96ax+U4604nKKTnPcGmFh6ncwXr6Z7U1mbA3nkdaj5Jzu49KXPqaQWJS688tu9/Si3WMhgzbWJyMmmxsqsN65Ht1oJUKQBznr7UCfZChkxyOffpT12klsgLjoD1qAketNYsF+XJx680WDlLBTCGQtgZ4HrTWZd+Fzj6VGGJUAk/Q08HYA5GQc9aYWa3FBAG7dz2FOLmUFtoGPQYqDIYhgeMVJGC52AZz6UWCwhyRwSKcmWYgAn8Kasm5Nvy8HP40rMVLAOTnrjjNFu4agnP3jtwCelSeYpjCMCSPukdqiMh2bQBz3pIX2kOyg4HK+tIGrodnBIp0hjxlcjA5BphYO+AQq56AdKOAGUrlTwD0IosFhQfxpWDBd2DjA6GmK6hhkE46/Sl8zcgAXAznJ60WG7j2jICszrhh0pgIUBenpQXJADc44FEhyQQqrx2pgk+o5H2qVySCPSlUorKwb0JGOlQqWHUg/QUp5xx0oDlJZJC53EAH2pqyMEKrI3THJzTM56GjigLD5P9ZwQV78UqyFDwxX6cUzd6nNNJBYAjnqKNx6luPULxCpS7uFAP984qaTV7x3zuHTuoP86z85GKFyAMnJpWQXe5fTVroj5kiBHogH8qV9TbGXt4WHfgn+ZrPJNJu79fpS5UyudmgL2A8tYwnPJNNe5s2G17Pr2DY/pVFGDDPI+tLx/WjlSYczLnnWZH/Hu6/Rs0brEjBSYe4IqpkUhNFhczLOLMHCmYDt04o8u3LcT4GP4lI/lmqq5BOeeePagsOAe9OwX8i0YlYALOhHbnFKYZCgCqrEd1YGqm8A49s0J35PJyM0WFZE8kU/lBdhAHRtuaiYlSAVbJ9qcsrqeHYH2NPW5mH/LQn696A0I8ilzT/tByS0UTeuU/wpDPFgl4Fx3IJoHZdxmak3hiN5OB2FJ5lsc4SQY7bqRmtwM7pB/wEGgTiISMnGcdqTdTgIz0mH/fJpvlsW4kiIx645/Gj1DlY5JArZxkjrTd1AhYsQu0nqdrCgW867QEZvXHNPQOUN4JPI4oZgFzgn6UjQyBstG4P0pCCfl2t+VLQdhwYH1/Gh3Z1C7jgdPamsJMghePpSKBjjp1NMVuo8nA9Tik64OSPamhfmyCx9s07DDqpxSAdvYDaMAE88UKdpGPzqPnceRjHSlJxQxWJJCpI2AgY5z60I22NlI3E/xHtUSsSeRilJoC2lh24bjzyOtAYEZB4pvFGRnrT0Cw4MMkd6QscHbjPSmsTj5Rk0gwuABnPpQkPcfuIIGM+9AYMMg/pSE8UivvGQCPrSBaDwQBjNLu96jAAJPrRlVXrgCmBJupCwyBikyPWkGQMZzSFYfuozUW1s8OQM5INLu5x360WCw87SPmHA5oVgVyORTAdw4o5GAAMd6Yx+c08uDGE2jrnNRDAzjuaNwBwaVhWuOBpd1NzRkUAPVsZ4B4700sACe3emdMsMn8aQuvGeMiiwKJJuHWlB/KoiRtC5Iz0xSqwBA3c4z15p2HYlcpn5c496aTwcHHvTQwPOc0NyMdqQJWHA8f/WqQTN3weNvI7VXUkHAHHrmgPlyMHgde1FhNXJyVKZy27PNG8bNoXB7n1qPNGRQKw9yp+7kD3PNA5YAnqaZkE9cUvy7M5Od36UBaw5iFZlByAcZ9aaGG/ByB60wsWyQO+KeSB07jn2NMdrEjhxjd6cfSmqrFSwHA60xZCGGGwR0pTISoUYwO4osTZoeu3kPnPbFIqPJuCds89qTzOSxwx9+c01ZDtwpwDzgUh2fQlKDcQHBAGc0zJ9+mabu+cZbqetOkZjhWGCOMU7BqNJPUZz79KCM4z2OacVYA7uo4IpWlLHGNq57frQF+wIVLAMSF9QKVR5j7UVs5wOetMV8SNsXdt/vDim8gnke1KwWJioGQW5HQetRDCnAHFIp6cHbnnnnFOYhcMQQmetOw1poxc5p0j5bHHHpUT43lskjoM0qr8oJOAeM0rBoKxOCBxSYG3bjP1pwkBQKArLnOe9Nzz6/SgEx65WLLNz3AHakBzTTw2HB4PQ05SpkDEAAdF7U9xMXB8wJ0JODnoKRjtJBpZDmdg2Ac84NNfb5vyYKY696VgI91IzDByKKKqxYoOAAO1ISccYzRRRYBC5DKOOaU9Se+MUnfrRQFxTgkHAyKUE47fhSUUWELuoYnacYzSUUDFz7CjdSUUWEKW5C+2aaPu4PP1paKLDFBwMAUbvakoosIQsqADGMml3EEYxjvRRQMBgHIHNLupKKLCF3UbjjHakoosAEgkEjpS7vakoosAEnGQATQWwuSO1JS0DDIbDY96Ae4PFFIBjpQA7dSLxnvk96KKLAIrEHaTk9RTt/JHcUlJiiyAduoJyMYpKKLCFz9KaCxOcAf0paKBhuwenFJvbcRge1LSGiwCndxzx3pSeKaBgYyT9aWiwCggDAFBJI44pKO2KAFzxxTWYjkgFfbrQAAMCkO7IweO4osgQ/fg845oJptA/OiwhQTn29KXdwB2pKKABmwCcE46ClDuoDJw316UlFFgAk7flxQCQADjNGaKBhzuBGAO9DYOCaKKAAEdQBzSlie/wCdNAAGAMClosJgrE87cUZbcOBj1ozRQAu6jdSUUWAG+YYIzzS5xSUUWGLuo3UlFFhC7qN3tSUUWAXdRupKKLALnPUUnGR7UUUWAXdRupKKLALuo3UlFFgF3UZpKKLAKDj1NIeoPpRRQAu6jdSUUWAUnPWkBwcbeMUUUWGHU59KQE7sdQeRxS0UAJkDOT19aXO0ABT1xxRRRYBc+1G6koosIUMR04pfMb+83502iiwDi5PXJ+ppFYrwpIH1pKKLAOLk9ST9TSbqSiiwCluOlJ1IOfWikAAAAzxRYYoJBPpQSSO4+lFFFgDfzjH40uTnOaSiiwAHz2xQTmiiiwC7qN1JRRYQu6kZgeMdfSiiiw0Ctx0xihXyCV5xSHmiiwCrwT70LgMTjBooosF2Ln2o3e1JRRYQZDN1PB6UpPOf1pjEgZALH60p+ZcHv2pjFLBRnIxRvGccZNNKgjB6UEZxgkYpWQKw/dScYxgY9KTncc9KWiwC7vakooosIFYFcjgGgcD1PrSEAjB6UtFhi7qTtgcfSiiiwg3Y4J5HrSg8dKYMMM4PpzSZ2L0b6Dmiw7IkVjj5gAaQFsDceaYFJO4nPpT6LAxQ2DTpXUgFAc45HvTKKLCsKTnkgA00nnIU5HHHelooGBJGD+GKXNJRQIAwLEY6U7zC8mXJJx3ptIc9sZ96NB7khdlZ1DAqe4703dTMEkEkgj0NOoaEODkDAPUYNITxjFJRRYAXCgADgUpbIAI4pKKLAPdwyqCoBBzkUx2fGRlgO2aKKASsSIxGSDtNHIAYEcnpUdFFgsPkfc5Y859aYxypHT6UUUWAMg9Rml3UlFFgG596M+9NzRmixWg7PvRn3puaM0WDQdn3oz703NGaLBoOz70Z96bmjNFg0HZ96M+9NzRmiwx2fejPvTc+1Gfaiwh+fejPvSIpcMRgBRk5NI2AeuaLBoLn3oz703NGaLDHZ96M+9Jg4yQaTPtRYWg7PvRn3puaM+1FgHZ96M+9NzRmiwx2fejPvSYO0tjgHGc0mfaiwtB2fejPvTc+1GfaiwDs+9Ln3pmacdgUHOSeoHaiwaC596TPvSNgdCD9KTPtRYB2fejPvTc+1GfaiwaDs+9Gfem5o/CiwDs+9Gfem59qM+1Fg0H596M+9JGAzgEgA9z2prcEjrRYNB+fekz703PtRn2osA7PvRn3pufajPtRYNB2felz70zPtRmiwWQ/PvR+NImwqxYkEdKacA8c0WAfn3pM+9Nz7UZ9qLBoOz70ufemZp7heCmenIPrRYNBM+9Gfem59qM+1Fg0HZ96M+9Nz7UZ9qLBoOz70Z96aMk4AJNB46iiwaDs+9Gfem59qM+1Fg0HZ96M+9Nz7UZ9qLAOz70Z96bn2oz7UWGOz70Z96bn2oz7UWAdn3oz703PtRmiwh2fejPvTc+1Lg7d2OM4zmiwaC596M+9Nz7UZ9qLAOz70Z96bn2oz7UWDQdn3oz703PtRmiwaDs+9Gfem59qM+1Fhjs+9Gfem59qM+1FgHZ96M+9Nz7UZ9qLC0HZ96M+9Nz7UZosGg7PvRn3pufajNFg0HZ96M+9NzRn2osGg7PvRn3puaM+1Fg0HZ96M+9NzRmiwx2fejPvTc+1GfaiwDs+9Gfem5/zmjPtRYB2fejPvTc0Z9qLC0HZ96M+9NzRmiwaDs+9Gfem5ozRYNB2fejPvTc+1GaLBoOz70Z96bn2ozRYNB2fejPvTc0Z9qLBoOz70Z96bmjPtRYNB2fejPvTc0ZosGg7PvRn3pufajNFg0HZ96M+9Nz7UZosMdn3oz703NGfaiwDs+9Gfem5oz7UWAdn3oz703NGaLC0HZ96M+9Nz7UZosMdn3oz703PtRmiwtB2fejPvTc+1GfaiwaDs+9Gfem5oz7UWDQdn3oz703NGaLBoOz70Z96bn2ozRYY7PvRn3pufajNFhaDs+9Gfem5oz7UWDQdn3oz703NGfaiwaDs+9Gfem5ozRYNB2fejPvTc+1GaLBoOz70Z96bn2ozRYNB2fejPvTc0Z9qLBoOz70Z96bmjPtRYNB2fejPvTc0ZosGg3NGaWQIGIVsjtxTOlMasx2aM0zcO9IWO7lc89qaQ7EvHrSZFEbHJxzkUeW5LAA5UZINFhaBmjNLu38OQuB6U0cds0rAh6gtnAzgZNNz/wDrp0g2EfLjK8ZNMiYHllce1Owl3YuacBxk5x60giYqWHOOTSxq7IwUgDvzxRYG0KxTJKZA7ZpFb5CuFz1yRTd2wuAV4yD3FMDEt2xRYaRIuCQBzmk3DcR6HFMYHPHB704bDgMhHOSc9aLIdh3mbsMSWA96c4PDhQFPIxUJ+/04xSxnDc42+lFhW7EuAxAUkknniiQogVchief/AK1QoxxnGCKfjzMyyFQ/oOpp2Bq24q4Y46Zp64wScEAce9QkHBb+HOPems+GCk9amwWuTqVKlTnqMUzNIh2tnJH0pW2tLtBO0/xUWuFrDgBtzn2puRS/IQF53ZwOO1NL5TYE5LdadhIeANu4sMZxjvTegppBBO4YbvSB2MeGLcdAR2osUSrz34HOM0EEKGwcGmRsONynB6jNIxycDIGe9FhW1HIVZtpYLxnmnBdwLL0HrSSMhA2rhsY/CmrI4Qpgbc56daLBZ7ocff605pAQAq7cDnHempINuxydo5wOtC7ACWGfTBpWFvuKzKw4woHakHJxnFIoA5bOMdqSMqz4yAM4zTsCH5TaDk5zTS4LHOSevSm8rKCMbR6inNnPmhR1x0osMAfrT9h+X1bpUauxYnGCe4oMhMS5429PWi1gaZIybW2c7vSkZWVtvf060xXPykEgjnpTopcOWky2fTrRYNRQCQW7DrTgAIy5I64HrUce0scnAxSFicZAOOaLBZseXUgArjHp3pWIbJCgY7jpUG4YOcjtTlO3IVsKetCQcth460rjYSCR+FKWUhF3uccHio9+0nB7YosCux1K5UAAZDdDmmbTgMTgGkpBa47NLSL3Vsj8KcOEJIHPHvRYVxWRlUMehpGUqAT3FN3naF7DoKVipAIzu707BqOVwqccMDnI/lSEjaM5zTWbK7ccA9aRCoYbhkelIEhc0ZpHxnikORjPBPQGgY7IpwXK7gR16d6btITdjg9/SlRwqk4BYjigT12A8dRSqAxAB5PrTVJPygZ56UjcMRyKdhkg2BGLcnoOaZmmjGeelEhVX4J2k8UWYJaj1BZgoGSadGVBKsASRjntTI8gbvu4P40/dvO0LzuznrRYT7Dcj1p5KBThu/APWo/lwOCD3plIdiVmz2A+lIMkHAzimxjc4G4DPc08BghZc4HDUA9NBDgHGaTNNHWnlMuApBJoDYTNOUpn5s/h1pu0q4Dgj1ocAH5Tlc9cUBoO3KE24BJOc46U6RQMEcAjpnmogxHQ9qEOGycEe9OwrNDhz/KlTYThmI+lI2QgIPyt2pgBJwBk0h7jyRxg0maNx2bSTwelN9xQP1HZozTQCegNByrYPBB/KgWg7IpzqVwTggjPFNfbwQxPHzGnOuxRlgWPUU7CuIOTSZoyFYEgNj3oKnaWxwDjrSHoGaXn0p3+qlAYZxjPOaaX+cyA4bNOwr9hM4pygsCew6mmHkEgHjrQoLMAOSaLD6EgRym8D5fWmHvSAlSV/A09nGxVAIGM/WlYFuKpjKYO4Nnr7UzPrSgqH3BcgDOCaAEwGIyM9AeadhLQTNGaNynPHXv6Uke0tgtgetFhi5pRggEnAJ60wnBwOaeWPlKNmACfmx1pAK20E4Pfim0wsB1NP4YAANuHWgAzRmmsMMVyMjrg0UDHZozRGFz8+4A9CKYTzxQJD80ZFRqcjJGKcKLAPNJmjcpIL5444FNyKAQ7NGabSUDsTbQcBW3EjPSkCkkhecdabHIUOVOMjHtSBjnr1p2J1HDnGDkk4FOQKWIZtuM5pi7i42A57YpuT70WHqx65JwBk+1B4+tNQqSRnacZpYickbfvcD/GiwbBn2NGaVjsdlwD29aZ1I2iiwDs0ZpoQkbyy46Y70gYHoRRYNB+acVwAcqcjPBqNcZGenepYwpl2k/L7ntSB6DM06PBcDOM9zSABm+XjHcmkBiL4yQB1oC44sCMYHGe1NzSYy2F/DPWlVSckjhetAaIM0ZpcqVI3N7cdabtxjPAPegLoXNGaCoOQnzY9qQKdu7HGcZoDQXNH4UCUK5Cxjb79Pwo3FcEADinYBcHZuxxnFJkUnJGMcewoB2tng4pWAXNGaUsHJ3Z9RgVGpBz7celOwD80ZofH8JO0dCRSja27Z0AHXA5osAmaM02LLtg/KM8E96Vhgc0WHoLnnninJtZgCcD1puVIAxgjrk0rMgGEz16kYNFhCZFGaauMgMTilcgscHI6ZpALmjNMpR1A9aAHZozSMu08EH6UgIyM5x7UAOJ4pAwOfbrTSwMhUelPAjKjAbd3I6GnawfIaj4YHpTlww5GQvJx1qHcOOaAc8imNq4/KkEEdehp4YMFBwm3owFQk04sSAOw6UA9RCSM/xc9qerF2wxxnuaarYJ+VTkY59fWmEYJOeoxzQPclZvmJ/XNI77wARkDtUbE+maMHGAx+tMOUfvBdVbPPGfSlLlup4xTKCoPXrnNK6CyFEjlWVWIB44PWgkk9ePQU0KADjihVwSc9TmncNBxxjAH50dMnk85oopAPDqSGcYHTApCw3ZXge9MKg4ziloFZDnYMxJAGfSmrgDHNFFIBNwQE8n9aXgkEZ/OiimO44MO4zTSaKKAGghgc889u2KUZDdMg0DikYnIAA680XGnckDkEEZyOlBbLFu5qM5yDnj0p2aNhWHRvsOQMnOQTzQzliWbJJptFAhcgdsUmTu68elN+8evQ0uOc5/WixQ9n3R7D65z3+lNY8cdaKKCRC2WAweOaA3z4yMY6UopDntQmO4/wAz5NmOAc0FzsIGF5zn0qIAgkkg5pdvQk5IoCyQ8HjufelLDGMVGchhyAKdmgGhwbA+UAHOaTcPTrSUUAGQBwCaON2eeKbg5zmhiRgAZ5oGPLD3pC4A/Smlc5z9KXFFkLQdkelGQSDzkUlGaAFLgdc80isMdDxSIW2jIGaCMjGce4oDQfKoGFzkdeDSZ9BTSdozzgUAnHX60B0JJyx4JG4d6bk9yaZ1fOTkDBoLYO09cUwt0H7vano6j76ZH1xUG4r97qegFOXOMdT3pA1oKCC24Z9KXdTS20ZPFND5OB6ZoHa5P5mT8wzxge1I87EAfewcknmoVZscrg+lOB4oFyokV1kILEqSecikJAJAOaibdvGCMDsaGBOCCeO1OyDlHiQbsbTmn7kZSd3IPTHWo+3vSBs8jBHrSQ7XJAwGDjPPQ9KFbkkoSCODUQJYZ5A7U/LbNueOuKBNAXLN0p27HrUbMVHAzSg0BYduFG6mbvmIxSbiwIGRRYaRMpBIBOB3NN3kkgjocCmYI5ySMdKAfmIxQFiXgA5znAxSByOnFR5bgZzgYA9KFO7pTaFYlyCo67iaHKcbc9Oc+tRMSMYGefXpTs0hWF3UjMRgAZyfyoznkGkzmi4xS+DjBOeKk3qpBXOR/OouaB0xQFrjwQWAZgNx4yaeHARl34H86gBDE8cg0OBwSM46UwcVsWHZAildwYe9M3Dac/gKjByM0u8ICSARjvSTJ5Rd5ByMg0hkyTnPFN4YhvaloKJGcFQNuDk80nRQxAIPHXmm01hx3/Ci4kuhIzhiSFxk+tJn2pgBAJySaELd8delFh2tsToxVTkHa3B5prSIsg2lj6UxnYLyeOuKaTyB6/pTQlG4/NIWPYU0ZC8n65oA+bOePSkO1hwcEd+KdG44OMj60yjtxRoDtYkLKWJA2jPApVUeZhs4HUioM4wATn1xSg8cnnvTE0TO6gD5cY9T1ppc7QPSow2e3tSk7eppAkOUE7iecUpbnpmm5Hlns3akVgRkHNA9yVUJbgjGOT2FIwI5GCM4HvTCzhSEPXrzQHIyOmetArMkdmHyuM7egNIxQgFYyCBgnOc1GSSRzT49207euOfpQDVhGBDdDxxT8qFYMDnt7U3zCzAuSR35okbe2QoX2oFr1Edsn7vWnqAvBO3I4I9KhBYMd3I9KdIAPuNnI646GmN9hwyfujJ7ikRXfc+DtA/OkR5AuM9Rg470qsMndnn09aWiB3AsBzzSKTk5OPpTeTlTjB9KTkMB2x+tFh20Jy+w5QknH60xCS4zgZ9TxUbBhyhwT1p3NMLJDtwBIpfN/dsi7cZz9KTK7MBADnOc0wkDJx19BSBK+4pPzDg5p7ltu0AAg9TTFOVB6U5pCUCnHy96AYu4BRjJOOafCgZiCp5zjFQoWAwTkZyKUyMXJzgk07CafQlSURoRtGTgVHu74pgJJxkcfpSZzxyOaLDUbEu7HPSm78nlcYppAJz3oJbdgAY9aAsPDYpRIysCMED1poPFITSAcG54pxYsAMtnPA7VCu4DkKOeMUuMkMeKNgsSthcYYNkflSO5QDBwx6D0phNIpJAJGDQgS7kkjqVG1SpA5wetDOSACxYAcZptGaLisiSPJJCnk/ypDnGQDg8A1GGB6Gk3PuGMbe9MEnckfK43KRnpTiW2qWH0NRMWLZJyMdKQseFwcfoKQNXJvOXZtMXzY+9TAwBzimYIU85pVzjk5NDHypE5liATEZbHXJpokIbcBUOCTnOPakLHByP/AK9AlFEjuF55wKRmPGOmaapJUZAHtS7sZyu7PYnFA9h272pQ6+Xjad+eoPFNONhB5bPGDQgfkg8Y5GOlMQsgO35kYAjr601XG0HGPrT0OQctgYpEA3Dcu4HsTwaACOTIK4XJ6ZPakU4cnn0waE4wWUH2zTgrOSVXpzQw0FdlJ+VccetJGSrk5z6ZHFIoz7/jSIcMCQD7Uh9LEWPnzjnHWlBxnLD8sUlB561RVxQRjII5pc02ikIdmmtyMHGKKKADv1p273ptFAC5oyPakooCwuR7UZHtSUUALke1GR7UlFAC5HtRke1JRQAuR7UZHtSUUALke1GR7UlFAC5HtRke1JRQAuR7UZ96SigLC596M+9JRQFhcj2ozSUUALkUZHtSUUALke1GR7UlFAC5HtRmkooAXPvRke1JRQFhc0ZpKKAFyPajI9qSigBc+9GfekooCwuaMj2pKKAFyPajPvSUUALn6UZHtSUUAKT70gOcFuD7UUUDHA+9NJAbB69qKDzQIXPvSHGQeaKKBilsDJ6UA8Z4xSUUALn3oz70lFArC596M+9JRQFhc+9CkAYAxSUUALkZzRn3pKKBi596Q53bguT9aKKAWgu7HU4JoyM5pvfNLQLQXPvRn3pKKAsKOueCaTOR6EcciijNMYZ568elGPmzk/nRSEZx7UgHA5//AFUZ5JOKaRn86U89RQA7JxxikBwMYGfSkzSY+YHJ496AVhykkZ6ZoJPakzSMTtODzQHUczYGaTJyRjgfrSDoAecUAYoDQcpJHIx9aU9OlMxyDk/TNB5GDQAoYEkDqPanZ96Yd2SOPahc7eTmiwNIcT7/AJUgJ7jAopGGWBz0oFZCq7Zwev8AIUufekooGKxPGMe9LnPPFNpAMdyfqaAH5+lI2SMA4PqKb+NAGCT60AOY+tJyFx1OO/eijNAhQfzoJ7dc0neimMXIozxgHH4UlFIBV4AGSaT6knnPNFFAg43bup7U4NjocU2igHqKT703Owdz+tLRk0D0FBI75obJGAfxpKMmgBQcDBNLmm0UCsKTznPSjPvSUUALn3oz70lFAWHZpM+9JRQFhc0Z96SigBc+9GaSiga0Fz70HBGCeKSigQuc0Z96SigAHBIxgfWlGAMA0lFMb1BjwMNg5pc5HJpKKQgByScYxxS596SigYuR7UjEE7cn1oooEGcDjHWlBxnnrSUUDFz70Z96SigVkLn3oz70lFAWFz70Z96SigLA2D1pc+9JRQALxn5ic07dwcHrxTaKAFU7RgY/KnFyVAz0plFAWFz70u4+tNooAcGx9KVmUkYGOKZRQFhtFNooLsOoptFAWHUU2igLDqKbRQFh1FNooCw6im0UBYdRTaKAsOoptFAWHUU2igLDqKbRQFh1FNooCw6im0UBYdRTaKAsOoptFAWHUU2igLDqKbRQFh1FNooCw6im0UBYdRTaKAsOoptFAWHUU2igLDqKbRQFh1FNooCw6im0UBYdRTaKAsOoptFAWHUU2igLDqKbRQFh1FNooCw6im0UBYdRTaKAsOoptFAWHUU2igLDqKbRQFh1FNooCw6im0UBYdRTaKAsOoptFAWHUU2igLDqKbRQFh1FNooCw6im0UBYdRTaKAsOoptFAWHUU2igLDqKbRQFh1FNooCw6im0UBYdRTaKAsOoptFAWHUU2igLDqKbRQFh1FNooCw6im0UBYdRTaKAsOoptFAWHUU2igLDqKbRQFh1FNooCw6im0UBYdRTaKAsOoptFAWHUU2igLDqKbRQFh1FNooCw6im0UBYdRTaKAsOoptFAWHUU2igLDqKbRQFh1FNooCw6im0UBYdRTaKAsOoptFAWHUU2igLCZpM0lFUMdmjNNooEOzRmm0UDHZozTaKAHZozTaKAHZozTaKAHZozTaKAHZozTaKAHZozTaKAHZozTaKAHZozTaKAHZozTaKAHZozTaKAHZozTaKAHZozTaKAHZozTaKAHZozTaKAHZozTaKAHZozTaKAHZozTaKAHZozTaKAHZozTaKAHZozTaKAHZozTaKAHZozTaKAHZozTaKAHZozTaKAHZozTaKAHZozTaKAHZozTaKAHZozTaKAHZozTaKAHZozTaKAHZozTaKAHZozTaKAHZozTaKAHZozTaKAHZozTaKAHZozTaKAHZozTaKAHZozTaKAHZozTaKAHZozTaKAHZozTaKAHZozTaKAHZozTaKAHZozTaKAHZozTaKAHZozTaKAHZozTaKAHZozTaKAHZozTaKAHZozTaKAHZozTaKAHZozTaKAHZozTaKAHZozTaKAHZozTaKAHZozTaKAHZozTaKAHZozTaKAHZozTaKAHZozTaKAHZozTaKAHZozTaKAHZozTaKAHZozTaKAHZozTaKAHZozTaKAHZozTaKAHZozTaKAHZozTaKAHZozTaKAHZozTaKAHZozTaKAP/Z;" parent="1" vertex="1">
          <mxGeometry x="130" y="70" width="1420" height="887.5" as="geometry" />
        </mxCell>
        <mxCell id="AAz8cYp_clbT1UvRV7YB-2" value="&lt;font style=&quot;font-size: 28px;&quot;&gt;Пляжная зона с лежаками&lt;/font&gt;" style="rounded=0;whiteSpace=wrap;html=1;fillColor=none;strokeWidth=2;" parent="1" vertex="1">
          <mxGeometry x="930" y="130" width="620" height="430" as="geometry" />
        </mxCell>
        <mxCell id="AAz8cYp_clbT1UvRV7YB-3" value="&lt;font style=&quot;font-size: 22px;&quot;&gt;1&lt;/font&gt;" style="rounded=0;whiteSpace=wrap;html=1;fillColor=none;strokeWidth=2;" parent="1" vertex="1">
          <mxGeometry x="680" y="90" width="200" height="160" as="geometry" />
        </mxCell>
        <mxCell id="AAz8cYp_clbT1UvRV7YB-4" value="&lt;span style=&quot;font-size: 22px;&quot;&gt;2&lt;/span&gt;" style="rounded=0;whiteSpace=wrap;html=1;fillColor=none;strokeWidth=2;" parent="1" vertex="1">
          <mxGeometry x="340" y="260" width="260" height="100" as="geometry" />
        </mxCell>
        <mxCell id="AAz8cYp_clbT1UvRV7YB-5" value="&lt;span style=&quot;font-size: 22px;&quot;&gt;3&lt;/span&gt;" style="rounded=0;whiteSpace=wrap;html=1;fillColor=none;strokeWidth=2;" parent="1" vertex="1">
          <mxGeometry x="340" y="360" width="260" height="100" as="geometry" />
        </mxCell>
        <mxCell id="AAz8cYp_clbT1UvRV7YB-6" value="&lt;font style=&quot;font-size: 22px;&quot;&gt;4&lt;/font&gt;" style="rounded=0;whiteSpace=wrap;html=1;fillColor=none;strokeWidth=2;" parent="1" vertex="1">
          <mxGeometry x="150" y="100" width="170" height="120" as="geometry" />
        </mxCell>
        <mxCell id="AAz8cYp_clbT1UvRV7YB-7" value="&lt;font style=&quot;font-size: 22px;&quot;&gt;4&lt;/font&gt;" style="rounded=0;whiteSpace=wrap;html=1;fillColor=none;strokeWidth=2;" parent="1" vertex="1">
          <mxGeometry x="150" y="270" width="170" height="110" as="geometry" />
        </mxCell>
        <mxCell id="AAz8cYp_clbT1UvRV7YB-9" value="&lt;font style=&quot;font-size: 22px;&quot;&gt;5&lt;/font&gt;" style="rounded=0;whiteSpace=wrap;html=1;fillColor=none;strokeWidth=2;" parent="1" vertex="1">
          <mxGeometry x="630" y="280" width="250" height="190" as="geometry" />
        </mxCell>
        <mxCell id="AAz8cYp_clbT1UvRV7YB-10" value="&lt;font style=&quot;font-size: 22px;&quot;&gt;7&lt;/font&gt;" style="rounded=0;whiteSpace=wrap;html=1;fillColor=none;strokeWidth=2;" parent="1" vertex="1">
          <mxGeometry x="250" y="590" width="650" height="80" as="geometry" />
        </mxCell>
        <mxCell id="AAz8cYp_clbT1UvRV7YB-11" value="&lt;font style=&quot;font-size: 22px;&quot;&gt;1&lt;/font&gt;" style="rounded=0;whiteSpace=wrap;html=1;fillColor=none;strokeWidth=2;" parent="1" vertex="1">
          <mxGeometry x="420" y="90" width="260" height="130" as="geometry" />
        </mxCell>
        <mxCell id="AAz8cYp_clbT1UvRV7YB-13" value="&lt;font style=&quot;font-size: 22px;&quot;&gt;6&lt;/font&gt;" style="rounded=0;whiteSpace=wrap;html=1;fillColor=none;strokeWidth=2;" parent="1" vertex="1">
          <mxGeometry x="340" y="460" width="260" height="90" as="geometry" />
        </mxCell>
        <mxCell id="AAz8cYp_clbT1UvRV7YB-14" value="&lt;font style=&quot;font-size: 22px;&quot;&gt;4&lt;/font&gt;" style="rounded=0;whiteSpace=wrap;html=1;fillColor=none;strokeWidth=2;" parent="1" vertex="1">
          <mxGeometry x="150" y="430" width="170" height="110" as="geometry" />
        </mxCell>
        <mxCell id="igtmhMfMbYePpTrZUawJ-1" value="&lt;font style=&quot;font-size: 22px;&quot;&gt;8&lt;/font&gt;" style="rounded=0;whiteSpace=wrap;html=1;fillColor=none;strokeWidth=2;" vertex="1" parent="1">
          <mxGeometry x="950" y="600" width="60" height="60" as="geometry" />
        </mxCell>
        <mxCell id="igtmhMfMbYePpTrZUawJ-2" value="&lt;font style=&quot;font-size: 22px;&quot;&gt;8&lt;/font&gt;" style="rounded=0;whiteSpace=wrap;html=1;fillColor=none;strokeWidth=2;" vertex="1" parent="1">
          <mxGeometry x="1480" y="600" width="60" height="60" as="geometry" />
        </mxCell>
        <mxCell id="igtmhMfMbYePpTrZUawJ-3" value="&lt;font style=&quot;font-size: 22px;&quot;&gt;8&lt;/font&gt;" style="rounded=0;whiteSpace=wrap;html=1;fillColor=none;strokeWidth=2;" vertex="1" parent="1">
          <mxGeometry x="150" y="600" width="60" height="60" as="geometry" />
        </mxCell>
        <mxCell id="igtmhMfMbYePpTrZUawJ-4" value="&lt;span style=&quot;font-size: 22px;&quot;&gt;9&lt;/span&gt;" style="rounded=0;whiteSpace=wrap;html=1;fillColor=none;strokeWidth=2;" vertex="1" parent="1">
          <mxGeometry x="627" y="490" width="253" height="85" as="geometry" />
        </mxCell>
      </root>
    </mxGraphModel>
  </diagram>
</mxfile>
